<?xml version="1.0" encoding="utf-8"?>
<!-- Generator: Adobe Illustrator 23.0.4, SVG Export Plug-In . SVG Version: 6.00 Build 0)  -->
<svg version="1.1" id="Layer_1" xmlns="http://www.w3.org/2000/svg" xmlns:xlink="http://www.w3.org/1999/xlink" x="0px" y="0px"
	 viewBox="0 0 198 24" style="enable-background:new 0 0 198 24;" xml:space="preserve">
<style type="text/css">
	.st0{fill:#0A66C1;}
</style>
<path class="st0" d="M33.2,16.6l-1.7-4.3v6.1c0,0.9-0.5,1.3-1.3,1.3h-2c-0.9,0-1.3-0.5-1.3-1.3v-13c0-0.9,0.5-1.3,1.3-1.3h2
	c0.9,0,1.3,0.5,1.3,1.3v5.4L34.7,5c0.4-0.6,0.8-0.9,1.6-0.9h2.3c1.1,0,1.5,0.5,0.8,1.5l-3.5,5.9l1.4,3.2c0.7,1.6,1.2,1.8,1.8,1.7
	l0.5-0.1c0.6-0.2,0.9,0.2,1.2,0.9l0.3,0.7c0.3,0.8,0.1,1.5-0.8,1.8c-0.6,0.2-1.2,0.3-2,0.3C36.4,20,34.4,19.4,33.2,16.6z"/>
<path class="st0" d="M41.9,17.8c0-1.3,1.1-2.3,2.6-2.3c1.5,0,2.6,1,2.6,2.3c0,1.3-1.1,2.2-2.6,2.2C43,20,41.9,19.1,41.9,17.8z"/>
<path class="st0" d="M49.1,18.4v-13c0-0.9,0.5-1.3,1.3-1.3h2c0.9,0,1.3,0.5,1.3,1.3v13c0,0.9-0.5,1.3-1.3,1.3h-2
	C49.6,19.7,49.1,19.3,49.1,18.4z"/>
<path class="st0" d="M60.7,11.9c0-4.4,3.4-8.1,8.7-8.1c2.1,0,3.6,0.7,5,1.7c0.7,0.5,0.8,1.2,0.2,1.9l-0.9,1
	c-0.6,0.6-1.1,0.6-1.9,0.1C71,8,70.2,7.9,69.4,7.9c-2.4,0-4,1.8-4,4c0,2.3,1.6,4.1,4,4.1c0.7,0,1.6-0.2,2.4-0.6
	c0.7-0.5,1.3-0.5,1.9,0.1l0.9,1c0.6,0.7,0.6,1.3-0.1,1.8c-1.4,1.1-3,1.7-5.1,1.7C64.2,20,60.7,16.3,60.7,11.9z"/>
<path class="st0" d="M75.9,11.9c0-4.4,3.2-8.1,8.4-8.1c5.3,0,8.5,3.7,8.5,8.1c0,4.4-3.2,8.1-8.5,8.1C79.1,20,75.9,16.3,75.9,11.9z
	 M88.1,11.9c0-2.2-1.4-4-3.8-4c-2.4,0-3.8,1.9-3.8,4c0,2.2,1.4,4.1,3.8,4.1C86.8,16,88.1,14.1,88.1,11.9z"/>
<path class="st0" d="M94.3,18.3l1.2-13c0.1-0.8,0.6-1.3,1.4-1.3h2.1c0.8,0,1.3,0.3,1.5,1.1l3.1,7.8l3.1-7.8c0.3-0.7,0.8-1.1,1.5-1.1
	h2.1c0.8,0,1.3,0.5,1.4,1.3l1.2,13c0.1,0.9-0.4,1.4-1.3,1.4h-2c-0.9,0-1.3-0.5-1.4-1.3l-0.5-5.9l-2.3,5.9c-0.3,0.7-0.8,1.1-1.5,1.1
	h-0.8c-0.8,0-1.3-0.3-1.5-1.1l-2.3-5.9l-0.5,5.9c-0.1,0.8-0.6,1.3-1.4,1.3h-2C94.6,19.7,94.2,19.3,94.3,18.3z"/>
<path class="st0" d="M128.3,9.7c0,3-2,5.3-5.6,5.3h-2.9v3.4c0,0.9-0.5,1.3-1.3,1.3h-2c-0.9,0-1.3-0.5-1.3-1.3v-13
	c0-0.9,0.5-1.3,1.3-1.3h6.3C126.4,4.1,128.3,6.7,128.3,9.7z M123.6,9.7c0-0.8-0.6-1.6-1.4-1.6h-2.4v3.1h2.4
	C123.1,11.2,123.6,10.5,123.6,9.7z"/>
<path class="st0" d="M129.9,13.7V5.4c0-0.9,0.5-1.3,1.3-1.3h2c0.9,0,1.3,0.5,1.3,1.3v8.2c0,1.5,0.9,2.3,2,2.3c1.1,0,2.1-0.8,2.1-2.3
	V5.4c0-0.9,0.5-1.3,1.3-1.3h2c0.9,0,1.3,0.5,1.3,1.3v8.2c0,4.1-3.1,6.3-6.8,6.3S129.9,17.8,129.9,13.7z"/>
<path class="st0" d="M158.1,5.4v1.3c0,0.9-0.5,1.3-1.3,1.3h-2.9v10.3c0,0.9-0.5,1.3-1.3,1.3h-1.9c-0.9,0-1.3-0.5-1.3-1.3V8.1h-2.8
	c-0.9,0-1.3-0.5-1.3-1.3V5.4c0-0.9,0.5-1.3,1.3-1.3h10.3C157.6,4.1,158.1,4.6,158.1,5.4z"/>
<path class="st0" d="M159.9,18.4v-13c0-0.9,0.5-1.3,1.3-1.3h2c0.9,0,1.3,0.5,1.3,1.3v13c0,0.9-0.5,1.3-1.3,1.3h-2
	C160.4,19.7,159.9,19.3,159.9,18.4z"/>
<path class="st0" d="M167.3,18.4v-13c0-0.9,0.5-1.3,1.3-1.3h1.3c0.7,0,1.2,0.3,1.6,0.9l4.6,6.5v-6c0-0.9,0.5-1.3,1.3-1.3h2
	c0.9,0,1.3,0.5,1.3,1.3v13c0,0.9-0.5,1.3-1.3,1.3h-1.3c-0.7,0-1.2-0.3-1.6-0.9l-4.7-6.6v6.1c0,0.9-0.5,1.3-1.3,1.3h-2
	C167.8,19.7,167.3,19.3,167.3,18.4z"/>
<path class="st0" d="M182.8,11.9c0-4.4,3.4-8.1,8.7-8.1c1.8,0,3.2,0.4,4.4,1.1c0.8,0.5,0.8,1.2,0.2,1.9l-0.9,1
	c-0.5,0.6-1.1,0.6-1.9,0.3c-0.6-0.3-1.3-0.3-1.9-0.3c-2.4,0-4,1.8-4,4c0,2.3,1.6,4.1,4,4.1c0.5,0,1.3-0.1,1.9-0.2V14h-1.9
	c-0.9,0-1.3-0.5-1.3-1.3V12c0-0.9,0.5-1.3,1.3-1.3h5c0.9,0,1.3,0.5,1.3,1.3v4.5c0,0.7-0.2,1.2-0.7,1.6c-1.5,1.2-3.4,2-5.7,2
	C186.3,20,182.8,16.3,182.8,11.9z"/>
<path class="st0" d="M21.3,11.9c0.6,0.4,1.2,1,1.5,1.7c0.3,0.7,0.4,1.5,0.2,2.3c-0.1,0.4-0.2,0.8-0.5,1.2c-0.4,0.6-1,1.2-1.7,1.5
	c-0.7,0.3-1.5,0.4-2.3,0.2c-0.4-0.1-0.8-0.2-1.2-0.5c-0.6-0.4-1.2-1-1.5-1.7c-0.5-1.2-1.9-1.8-3.1-1.3c-0.7,0.3-1.5,0.4-2.3,0.2
	C10,15.4,9.6,15.2,9.3,15c-0.7-0.4-1.2-1-1.5-1.7c-0.3-0.7-0.4-1.5-0.2-2.3c0.1-0.4,0.2-0.8,0.5-1.2c0.4-0.6,1-1.2,1.7-1.5
	C11,7.8,11.5,6.4,11,5.2c-0.3-0.7-0.4-1.5-0.2-2.3c0.1-0.4,0.2-0.8,0.5-1.2c0.4-0.6,1-1.2,1.7-1.5c0.7-0.3,1.5-0.4,2.3-0.2
	c0.4,0.1,0.8,0.2,1.2,0.5c0.6,0.4,1.2,1,1.5,1.7c0.3,0.7,0.4,1.5,0.2,2.3c-0.1,0.4-0.2,0.8-0.5,1.2c-0.4,0.6-0.9,1.1-1.6,1.4
	c-1.1,0.5-1.8,1.7-1.4,2.9c0.4,1.4,1.9,2.1,3.2,1.6c0.7-0.3,1.5-0.4,2.3-0.2C20.5,11.5,20.9,11.7,21.3,11.9z"/>
<path class="st0" d="M6,11.6c-0.2,0.7-0.1,1.5,0.2,2.3s0.8,1.3,1.5,1.7C8,15.9,8.5,16,8.9,16.1c0.7,0.2,1.5,0.1,2.3-0.2
	c0.1,0,0.2-0.1,0.3-0.1c0,0,0,0,0,0l1.2,2.8c0.9,2.1-0.1,4.5-2.2,5.1c-1.8,0.6-3.9-0.3-4.6-2.1L0.4,9.1c-0.8-1.9,0-4.2,1.9-5
	c1-0.4,2-0.4,2.9,0c0.9,0.4,1.6,1.1,2.1,2l1.2,2.8c0,0,0,0,0,0C8.4,8.9,8.3,9,8.2,9c-0.7,0.3-1.3,0.8-1.7,1.5
	C6.3,10.8,6.1,11.2,6,11.6z"/>
<g>
	<g>
		<path class="st0" d="M22.9,6c-1.6,0-3-1.3-3-3c0-1.7,1.3-3,3-3c1.7,0,3,1.3,3,3C25.9,4.6,24.6,6,22.9,6z M22.9,0.4
			c-1.4,0-2.6,1.2-2.6,2.6c0,1.4,1.2,2.6,2.6,2.6c1.5,0,2.7-1.2,2.7-2.6C25.5,1.6,24.3,0.4,22.9,0.4z"/>
		<path class="st0" d="M23.5,3.2c0.2,0.4,0.5,0.9,0.7,1.3c-0.2,0-0.4,0-0.6,0c0,0-0.1-0.1-0.1-0.1c-0.2-0.3-0.4-0.7-0.5-1
			c0-0.1-0.1-0.1-0.2-0.1c-0.2,0-0.3,0-0.5,0c0,0.4,0,0.8,0,1.2c-0.2,0-0.4,0-0.5,0c0-1,0-2.1,0-3.2c0.5,0,1,0,1.5,0.1
			c0.4,0,0.7,0.3,0.7,0.7C24.1,2.6,24,3,23.5,3.2C23.6,3.2,23.5,3.2,23.5,3.2z M22.4,2.9c0.2,0,0.4,0,0.6,0c0.3,0,0.5-0.2,0.5-0.5
			c0-0.3-0.1-0.5-0.4-0.6c-0.2,0-0.5,0-0.7,0C22.4,2.2,22.4,2.6,22.4,2.9z"/>
	</g>
</g>
</svg>
