<svg width="198" height="24" viewBox="0 0 198 24" fill="none" xmlns="http://www.w3.org/2000/svg">
<path d="M33.2289 16.6304L31.5089 12.3404V18.4004C31.5089 19.2704 31.0389 19.7404 30.1689 19.7404H28.1589C27.2889 19.7404 26.8189 19.2704 26.8189 18.4004V5.43043C26.8189 4.56043 27.2889 4.09043 28.1589 4.09043H30.1689C31.0389 4.09043 31.5089 4.56043 31.5089 5.43043V10.8004L34.7289 5.03043C35.0889 4.38043 35.5789 4.09043 36.3189 4.09043H38.5989C39.7389 4.09043 40.0489 4.56043 39.4289 5.61043L35.8989 11.4904L37.3089 14.6904C38.0289 16.2804 38.4989 16.4604 39.0989 16.3404L39.5689 16.2304C40.2189 16.0504 40.4389 16.4504 40.7289 17.1504L41.0389 17.8904C41.3789 18.6904 41.1089 19.3904 40.2089 19.7004C39.5789 19.9004 39.0489 19.9904 38.2389 19.9904C36.3989 19.9904 34.3889 19.3804 33.2289 16.6304Z" fill="#0A66C1"/>
<path d="M41.9089 17.7704C41.9089 16.4504 42.9789 15.4904 44.4789 15.4904C45.9289 15.4904 47.0689 16.4504 47.0689 17.7704C47.0689 19.0404 45.9289 19.9804 44.4789 19.9804C42.9789 19.9904 41.9089 19.0504 41.9089 17.7704Z" fill="#0A66C1"/>
<path d="M49.1489 18.4004V5.43043C49.1489 4.56043 49.6189 4.09043 50.4889 4.09043H52.4989C53.3689 4.09043 53.8389 4.56043 53.8389 5.43043V18.4004C53.8389 19.2704 53.3689 19.7404 52.4989 19.7404H50.4889C49.6189 19.7404 49.1489 19.2704 49.1489 18.4004Z" fill="#0A66C1"/>
<path d="M60.7289 11.9204C60.7289 7.56043 64.1689 3.85043 69.4489 3.85043C71.5089 3.85043 73.0489 4.50043 74.4089 5.50043C75.1289 6.01043 75.1689 6.73043 74.5889 7.38043L73.6989 8.41043C73.1389 9.06043 72.5589 9.01043 71.8189 8.52043C71.0389 8.03043 70.1889 7.87043 69.4489 7.87043C67.0089 7.87043 65.4289 9.66043 65.4289 11.9204C65.4289 14.1804 67.0189 15.9704 69.4489 15.9704C70.1889 15.9704 71.0189 15.8104 71.8189 15.3204C72.5589 14.8304 73.1389 14.7804 73.6989 15.4304L74.5889 16.4604C75.1689 17.1304 75.1689 17.7804 74.5189 18.2704C73.1189 19.3204 71.5489 19.9904 69.4489 19.9904C64.1789 19.9904 60.7289 16.2804 60.7289 11.9204Z" fill="#0A66C1"/>
<path d="M75.9189 11.9204C75.9189 7.56043 79.0989 3.85043 84.3689 3.85043C89.6489 3.85043 92.8189 7.56043 92.8189 11.9204C92.8189 16.2804 89.6389 19.9904 84.3689 19.9904C79.0889 19.9904 75.9189 16.2804 75.9189 11.9204ZM88.1189 11.9204C88.1189 9.73043 86.7589 7.87043 84.3589 7.87043C81.9689 7.87043 80.5989 9.73043 80.5989 11.9204C80.5989 14.1104 81.9589 15.9704 84.3589 15.9704C86.7589 15.9604 88.1189 14.1104 88.1189 11.9204Z" fill="#0A66C1"/>
<path d="M94.2689 18.3304L95.4589 5.36043C95.5289 4.53043 96.0189 4.09043 96.8489 4.09043H98.9289C99.6889 4.09043 100.179 4.43043 100.469 5.14043L103.599 12.9904L106.729 5.14043C107.019 4.42043 107.509 4.09043 108.269 4.09043H110.349C111.179 4.09043 111.669 4.54043 111.739 5.36043L112.929 18.3304C113.019 19.2504 112.549 19.7404 111.659 19.7404H109.689C108.839 19.7404 108.349 19.2904 108.279 18.4704L107.809 12.6104L105.549 18.5404C105.279 19.2804 104.769 19.5904 104.009 19.5904H103.199C102.439 19.5904 101.929 19.2804 101.659 18.5404L99.3989 12.6104L98.9289 18.4704C98.8589 19.3004 98.3689 19.7404 97.5189 19.7404H95.5489C94.6489 19.7404 94.1789 19.2504 94.2689 18.3304Z" fill="#0A66C1"/>
<path d="M128.349 9.66043C128.349 12.6604 126.379 14.9604 122.759 14.9604H119.849V18.4004C119.849 19.2704 119.379 19.7404 118.509 19.7404H116.499C115.629 19.7404 115.159 19.2704 115.159 18.4004V5.43043C115.159 4.56043 115.629 4.09043 116.499 4.09043H122.759C126.399 4.09043 128.349 6.66043 128.349 9.66043ZM123.649 9.70043C123.649 8.87043 123.069 8.11043 122.259 8.11043H119.849V11.2204H122.259C123.069 11.2204 123.649 10.4604 123.649 9.70043Z" fill="#0A66C1"/>
<path d="M129.939 13.6804V5.43043C129.939 4.56043 130.409 4.09043 131.279 4.09043H133.289C134.159 4.09043 134.629 4.56043 134.629 5.43043V13.6804C134.629 15.1604 135.549 15.9604 136.659 15.9604C137.779 15.9604 138.739 15.1504 138.739 13.6804V5.43043C138.739 4.56043 139.209 4.09043 140.079 4.09043H142.089C142.959 4.09043 143.429 4.56043 143.429 5.43043V13.6804C143.429 17.7704 140.319 19.9904 136.659 19.9904C132.999 19.9904 129.939 17.7704 129.939 13.6804Z" fill="#0A66C1"/>
<path d="M158.089 5.43043V6.77043C158.089 7.64043 157.619 8.11043 156.749 8.11043H153.839V18.4004C153.839 19.2704 153.369 19.7404 152.499 19.7404H150.579C149.709 19.7404 149.239 19.2704 149.239 18.4004V8.12043H146.419C145.549 8.12043 145.079 7.65043 145.079 6.78043V5.43043C145.079 4.56043 145.549 4.09043 146.419 4.09043H156.749C157.619 4.09043 158.089 4.56043 158.089 5.43043Z" fill="#0A66C1"/>
<path d="M159.899 18.4004V5.43043C159.899 4.56043 160.369 4.09043 161.239 4.09043H163.249C164.119 4.09043 164.589 4.56043 164.589 5.43043V18.4004C164.589 19.2704 164.119 19.7404 163.249 19.7404H161.239C160.369 19.7404 159.899 19.2704 159.899 18.4004Z" fill="#0A66C1"/>
<path d="M167.319 18.4004V5.43043C167.319 4.56043 167.789 4.09043 168.659 4.09043H169.959C170.679 4.09043 171.189 4.36043 171.589 4.94043L176.199 11.4204V5.43043C176.199 4.56043 176.669 4.09043 177.539 4.09043H179.549C180.419 4.09043 180.889 4.56043 180.889 5.43043V18.4004C180.889 19.2704 180.419 19.7404 179.549 19.7404H178.279C177.559 19.7404 177.069 19.4704 176.669 18.8904L172.019 12.2704V18.4004C172.019 19.2704 171.549 19.7404 170.679 19.7404H168.669C167.789 19.7404 167.319 19.2704 167.319 18.4004Z" fill="#0A66C1"/>
<path d="M182.819 11.9204C182.819 7.56043 186.259 3.85043 191.539 3.85043C193.329 3.85043 194.719 4.27043 195.969 4.99043C196.749 5.46043 196.799 6.18043 196.219 6.87043L195.329 7.90043C194.789 8.50043 194.229 8.53043 193.469 8.21043C192.819 7.94043 192.149 7.87043 191.549 7.87043C189.109 7.87043 187.529 9.66043 187.529 11.9204C187.529 14.1804 189.119 15.9704 191.549 15.9704C192.039 15.9704 192.889 15.9004 193.429 15.7204V14.0004H191.529C190.659 14.0004 190.189 13.5304 190.189 12.6604V11.9704C190.189 11.1004 190.659 10.6304 191.529 10.6304H196.559C197.429 10.6304 197.899 11.1004 197.899 11.9704V16.4604C197.899 17.1504 197.719 17.6504 197.209 18.0304C195.669 19.2204 193.809 20.0004 191.549 20.0004C186.259 19.9904 182.819 16.2804 182.819 11.9204Z" fill="#0A66C1"/>
<path d="M21.2589 11.8704C21.8989 12.2704 22.4189 12.8504 22.7289 13.6004C23.0389 14.3404 23.0989 15.1304 22.9389 15.8604C22.8489 16.2804 22.6889 16.6804 22.4589 17.0404C22.0589 17.6804 21.4789 18.2004 20.7289 18.5104C19.9889 18.8204 19.1989 18.8804 18.4689 18.7204C18.0489 18.6304 17.6489 18.4704 17.2889 18.2404C16.6489 17.8404 16.1289 17.2604 15.8189 16.5104C15.3089 15.3004 13.9089 14.7304 12.6989 15.2404C11.9589 15.5504 11.1689 15.6104 10.4389 15.4504C10.0189 15.3604 9.61887 15.2004 9.25887 14.9704C8.60887 14.5804 8.07887 13.9904 7.76887 13.2504C7.45887 12.5104 7.39887 11.7204 7.55887 10.9904C7.64887 10.5704 7.80887 10.1704 8.03887 9.81043C8.43887 9.17043 9.01887 8.65043 9.76887 8.34043C10.9789 7.83043 11.5489 6.43043 11.0389 5.22043C10.7289 4.48043 10.6689 3.69043 10.8289 2.96043C10.9189 2.54043 11.0789 2.14043 11.3089 1.78043C11.7089 1.14043 12.2889 0.620431 13.0389 0.310431C13.7789 0.000430584 14.5689 -0.0595694 15.2989 0.100431C15.7189 0.190431 16.1189 0.350431 16.4789 0.580431C17.1189 0.980431 17.6389 1.56043 17.9489 2.31043C18.2589 3.05043 18.3189 3.84043 18.1589 4.57043C18.0689 4.99043 17.9089 5.39043 17.6789 5.75043C17.2989 6.36043 16.7389 6.87043 16.0289 7.19043C14.9189 7.69043 14.2489 8.89043 14.5789 10.0604C14.9789 11.4604 16.4989 12.1604 17.7989 11.6104C18.5389 11.3004 19.3289 11.2404 20.0589 11.4004C20.4889 11.4804 20.8989 11.6504 21.2589 11.8704Z" fill="#0A66C1"/>
<path d="M6.00888 11.6404C5.84888 12.3704 5.90888 13.1604 6.21888 13.9004C6.52888 14.6404 7.05888 15.2304 7.68888 15.6304C8.04888 15.8604 8.45888 16.0204 8.86888 16.1104C9.59888 16.2704 10.3889 16.2204 11.1289 15.9004C11.2189 15.8604 11.3089 15.8304 11.3989 15.8004C11.4089 15.8004 11.4189 15.8004 11.4189 15.8104L12.6189 18.6504C13.4889 20.7204 12.4989 23.1004 10.3689 23.8004C8.52888 24.4004 6.50888 23.5004 5.73888 21.6904L0.418876 9.05043C-0.391124 7.13043 0.438876 4.85043 2.35888 4.03043C3.31888 3.62043 4.34888 3.64043 5.24888 4.01043C6.13888 4.37043 6.88888 5.07043 7.29888 6.03043L8.47888 8.84043C8.47888 8.85043 8.47888 8.86043 8.46888 8.86043C8.38888 8.90043 8.30888 8.95043 8.21888 8.98043C7.47888 9.29043 6.88888 9.82043 6.48888 10.4504C6.25888 10.8204 6.09888 11.2204 6.00888 11.6404Z" fill="#0A66C1"/>
</svg>
