<svg width="199" height="25" viewBox="0 0 199 25" fill="none" xmlns="http://www.w3.org/2000/svg">
<g clip-path="url(#clip0_56_355)">
<path d="M33.357 17.4987L31.637 13.2087V19.2687C31.637 20.1387 31.167 20.6087 30.297 20.6087H28.287C27.417 20.6087 26.947 20.1387 26.947 19.2687V6.29874C26.947 5.42874 27.417 4.95874 28.287 4.95874H30.297C31.167 4.95874 31.637 5.42874 31.637 6.29874V11.6687L34.857 5.89874C35.217 5.24874 35.707 4.95874 36.447 4.95874H38.727C39.867 4.95874 40.177 5.42874 39.557 6.47874L36.027 12.3587L37.437 15.5587C38.157 17.1487 38.627 17.3287 39.227 17.2087L39.697 17.0987C40.347 16.9187 40.567 17.3187 40.857 18.0187L41.167 18.7587C41.507 19.5587 41.237 20.2587 40.337 20.5687C39.707 20.7687 39.177 20.8587 38.367 20.8587C36.527 20.8587 34.517 20.2487 33.357 17.4987Z" fill="#E4E8EC"/>
<path d="M42.037 18.6386C42.037 17.3186 43.107 16.3586 44.607 16.3586C46.057 16.3586 47.197 17.3186 47.197 18.6386C47.197 19.9086 46.057 20.8486 44.607 20.8486C43.107 20.8586 42.037 19.9186 42.037 18.6386Z" fill="#E4E8EC"/>
<path d="M49.277 19.2687V6.29874C49.277 5.42874 49.747 4.95874 50.617 4.95874H52.627C53.497 4.95874 53.967 5.42874 53.967 6.29874V19.2687C53.967 20.1387 53.497 20.6087 52.627 20.6087H50.617C49.747 20.6087 49.277 20.1387 49.277 19.2687Z" fill="#E4E8EC"/>
<path d="M60.857 12.7888C60.857 8.42875 64.297 4.71875 69.577 4.71875C71.637 4.71875 73.177 5.36875 74.537 6.36875C75.257 6.87875 75.297 7.59875 74.717 8.24875L73.827 9.27875C73.267 9.92875 72.687 9.87875 71.947 9.38875C71.167 8.89875 70.317 8.73875 69.577 8.73875C67.137 8.73875 65.557 10.5288 65.557 12.7888C65.557 15.0488 67.147 16.8387 69.577 16.8387C70.317 16.8387 71.147 16.6788 71.947 16.1888C72.687 15.6988 73.267 15.6488 73.827 16.2987L74.717 17.3287C75.297 17.9987 75.297 18.6488 74.647 19.1388C73.247 20.1888 71.677 20.8587 69.577 20.8587C64.307 20.8587 60.857 17.1488 60.857 12.7888Z" fill="#E4E8EC"/>
<path d="M76.047 12.7888C76.047 8.42875 79.227 4.71875 84.497 4.71875C89.777 4.71875 92.947 8.42875 92.947 12.7888C92.947 17.1488 89.767 20.8587 84.497 20.8587C79.217 20.8587 76.047 17.1488 76.047 12.7888ZM88.247 12.7888C88.247 10.5988 86.887 8.73875 84.487 8.73875C82.097 8.73875 80.727 10.5988 80.727 12.7888C80.727 14.9788 82.087 16.8387 84.487 16.8387C86.887 16.8287 88.247 14.9788 88.247 12.7888Z" fill="#E4E8EC"/>
<path d="M94.397 19.1987L95.587 6.22874C95.657 5.39874 96.147 4.95874 96.977 4.95874H99.057C99.817 4.95874 100.307 5.29874 100.597 6.00874L103.727 13.8587L106.857 6.00874C107.147 5.28874 107.637 4.95874 108.397 4.95874H110.477C111.307 4.95874 111.797 5.40874 111.867 6.22874L113.057 19.1987C113.147 20.1187 112.677 20.6087 111.787 20.6087H109.817C108.967 20.6087 108.477 20.1587 108.407 19.3387L107.937 13.4787L105.677 19.4087C105.407 20.1487 104.897 20.4587 104.137 20.4587H103.327C102.567 20.4587 102.057 20.1487 101.787 19.4087L99.527 13.4787L99.057 19.3387C98.987 20.1687 98.497 20.6087 97.647 20.6087H95.677C94.777 20.6087 94.307 20.1187 94.397 19.1987Z" fill="#E4E8EC"/>
<path d="M128.477 10.5287C128.477 13.5287 126.507 15.8287 122.887 15.8287H119.977V19.2687C119.977 20.1387 119.507 20.6087 118.637 20.6087H116.627C115.757 20.6087 115.287 20.1387 115.287 19.2687V6.29874C115.287 5.42874 115.757 4.95874 116.627 4.95874H122.887C126.527 4.95874 128.477 7.52874 128.477 10.5287ZM123.777 10.5687C123.777 9.73874 123.197 8.97874 122.387 8.97874H119.977V12.0887H122.387C123.197 12.0887 123.777 11.3287 123.777 10.5687Z" fill="#E4E8EC"/>
<path d="M130.067 14.5487V6.29874C130.067 5.42874 130.537 4.95874 131.407 4.95874H133.417C134.287 4.95874 134.757 5.42874 134.757 6.29874V14.5487C134.757 16.0287 135.677 16.8287 136.787 16.8287C137.907 16.8287 138.867 16.0187 138.867 14.5487V6.29874C138.867 5.42874 139.337 4.95874 140.207 4.95874H142.217C143.087 4.95874 143.557 5.42874 143.557 6.29874V14.5487C143.557 18.6387 140.447 20.8587 136.787 20.8587C133.127 20.8587 130.067 18.6387 130.067 14.5487Z" fill="#E4E8EC"/>
<path d="M158.217 6.29874V7.63874C158.217 8.50874 157.747 8.97874 156.877 8.97874H153.967V19.2687C153.967 20.1387 153.497 20.6087 152.627 20.6087H150.707C149.837 20.6087 149.367 20.1387 149.367 19.2687V8.98874H146.547C145.677 8.98874 145.207 8.51874 145.207 7.64874V6.29874C145.207 5.42874 145.677 4.95874 146.547 4.95874H156.877C157.747 4.95874 158.217 5.42874 158.217 6.29874Z" fill="#E4E8EC"/>
<path d="M160.027 19.2687V6.29874C160.027 5.42874 160.497 4.95874 161.367 4.95874H163.377C164.247 4.95874 164.717 5.42874 164.717 6.29874V19.2687C164.717 20.1387 164.247 20.6087 163.377 20.6087H161.367C160.497 20.6087 160.027 20.1387 160.027 19.2687Z" fill="#E4E8EC"/>
<path d="M167.447 19.2687V6.29874C167.447 5.42874 167.917 4.95874 168.787 4.95874H170.087C170.807 4.95874 171.317 5.22874 171.717 5.80874L176.327 12.2887V6.29874C176.327 5.42874 176.797 4.95874 177.667 4.95874H179.677C180.547 4.95874 181.017 5.42874 181.017 6.29874V19.2687C181.017 20.1387 180.547 20.6087 179.677 20.6087H178.407C177.687 20.6087 177.197 20.3387 176.797 19.7587L172.147 13.1387V19.2687C172.147 20.1387 171.677 20.6087 170.807 20.6087H168.797C167.917 20.6087 167.447 20.1387 167.447 19.2687Z" fill="#E4E8EC"/>
<path d="M182.947 12.7888C182.947 8.42875 186.387 4.71875 191.667 4.71875C193.457 4.71875 194.847 5.13875 196.097 5.85875C196.877 6.32875 196.927 7.04875 196.347 7.73875L195.457 8.76875C194.917 9.36875 194.357 9.39875 193.597 9.07875C192.947 8.80875 192.277 8.73875 191.677 8.73875C189.237 8.73875 187.657 10.5288 187.657 12.7888C187.657 15.0488 189.247 16.8387 191.677 16.8387C192.167 16.8387 193.017 16.7688 193.557 16.5887V14.8688H191.657C190.787 14.8688 190.317 14.3988 190.317 13.5288V12.8387C190.317 11.9688 190.787 11.4988 191.657 11.4988H196.687C197.557 11.4988 198.027 11.9688 198.027 12.8387V17.3287C198.027 18.0187 197.847 18.5188 197.337 18.8988C195.797 20.0888 193.937 20.8687 191.677 20.8687C186.387 20.8587 182.947 17.1488 182.947 12.7888Z" fill="#E4E8EC"/>
<path d="M21.387 12.7387C22.027 13.1387 22.547 13.7187 22.857 14.4687C23.167 15.2087 23.227 15.9987 23.067 16.7287C22.977 17.1487 22.817 17.5487 22.587 17.9087C22.187 18.5487 21.607 19.0687 20.857 19.3787C20.117 19.6887 19.327 19.7487 18.597 19.5887C18.177 19.4987 17.777 19.3387 17.417 19.1087C16.777 18.7087 16.257 18.1287 15.947 17.3787C15.437 16.1687 14.037 15.5987 12.827 16.1087C12.087 16.4187 11.297 16.4787 10.567 16.3187C10.147 16.2287 9.74699 16.0687 9.38699 15.8387C8.73699 15.4487 8.20699 14.8587 7.89699 14.1187C7.58699 13.3787 7.52699 12.5887 7.68699 11.8587C7.77699 11.4387 7.93699 11.0387 8.16699 10.6787C8.56699 10.0387 9.14699 9.51869 9.89699 9.20869C11.107 8.69869 11.677 7.29869 11.167 6.08869C10.857 5.34869 10.797 4.55869 10.957 3.82869C11.047 3.40869 11.207 3.00869 11.437 2.64869C11.837 2.00869 12.417 1.48869 13.167 1.17869C13.907 0.868694 14.697 0.808694 15.427 0.968694C15.847 1.05869 16.247 1.21869 16.607 1.44869C17.247 1.84869 17.767 2.42869 18.077 3.17869C18.387 3.91869 18.447 4.70869 18.287 5.43869C18.197 5.85869 18.037 6.25869 17.807 6.61869C17.427 7.22869 16.867 7.73869 16.157 8.05869C15.047 8.55869 14.377 9.75869 14.707 10.9287C15.107 12.3287 16.627 13.0287 17.927 12.4787C18.667 12.1687 19.457 12.1087 20.187 12.2687C20.617 12.3487 21.027 12.5187 21.387 12.7387Z" fill="#E4E8EC"/>
<path d="M6.13699 12.5087C5.97699 13.2387 6.03699 14.0287 6.34699 14.7687C6.65699 15.5087 7.18699 16.0987 7.81699 16.4987C8.17699 16.7287 8.58699 16.8887 8.99699 16.9787C9.72699 17.1387 10.517 17.0887 11.257 16.7687C11.347 16.7287 11.437 16.6987 11.527 16.6687C11.537 16.6687 11.547 16.6687 11.547 16.6787L12.747 19.5187C13.617 21.5887 12.627 23.9687 10.497 24.6687C8.65699 25.2687 6.63699 24.3687 5.86699 22.5587L0.546989 9.91869C-0.263011 7.99869 0.566989 5.71869 2.48699 4.89869C3.44699 4.48869 4.47699 4.50869 5.37699 4.87869C6.26699 5.23869 7.01699 5.93869 7.42699 6.89869L8.60699 9.70869C8.60699 9.71869 8.60699 9.72869 8.59699 9.72869C8.51699 9.76869 8.43699 9.81869 8.34699 9.84869C7.60699 10.1587 7.01699 10.6887 6.61699 11.3187C6.38699 11.6887 6.22699 12.0887 6.13699 12.5087Z" fill="#E4E8EC"/>
</g>
<defs>
<clipPath id="clip0_56_355">
<rect width="197.78" height="24" fill="white" transform="translate(0.237 0.858643)"/>
</clipPath>
</defs>
</svg>
