<?xml version="1.0" encoding="utf-8"?>
<!-- Generator: Adobe Illustrator 23.0.4, SVG Export Plug-In . SVG Version: 6.00 Build 0)  -->
<svg version="1.1" id="Layer_1" xmlns="http://www.w3.org/2000/svg" xmlns:xlink="http://www.w3.org/1999/xlink" x="0px" y="0px"
	 viewBox="0 0 199 25" style="enable-background:new 0 0 199 25;" xml:space="preserve">
<style type="text/css">
	.st0{clip-path:url(#SVGID_2_);}
	.st1{fill:#E4E8EC;}
</style>
<g>
	<defs>
		<rect id="SVGID_1_" x="0.2" y="0.9" width="197.8" height="24"/>
	</defs>
	<clipPath id="SVGID_2_">
		<use xlink:href="#SVGID_1_"  style="overflow:visible;"/>
	</clipPath>
	<g class="st0">
		<path class="st1" d="M33.4,17.5l-1.7-4.3v6.1c0,0.9-0.5,1.3-1.3,1.3h-2c-0.9,0-1.3-0.5-1.3-1.3v-13c0-0.9,0.5-1.3,1.3-1.3h2
			c0.9,0,1.3,0.5,1.3,1.3v5.4l3.2-5.8C35.2,5.2,35.7,5,36.4,5h2.3c1.1,0,1.4,0.5,0.8,1.5L36,12.4l1.4,3.2c0.7,1.6,1.2,1.8,1.8,1.7
			l0.5-0.1c0.7-0.2,0.9,0.2,1.2,0.9l0.3,0.7c0.3,0.8,0.1,1.5-0.8,1.8c-0.6,0.2-1.2,0.3-2,0.3C36.5,20.9,34.5,20.2,33.4,17.5z"/>
		<path class="st1" d="M42,18.6c0-1.3,1.1-2.3,2.6-2.3c1.5,0,2.6,1,2.6,2.3c0,1.3-1.1,2.2-2.6,2.2C43.1,20.9,42,19.9,42,18.6z"/>
		<path class="st1" d="M49.3,19.3v-13c0-0.9,0.5-1.3,1.3-1.3h2C53.5,5,54,5.4,54,6.3v13c0,0.9-0.5,1.3-1.3,1.3h-2
			C49.7,20.6,49.3,20.1,49.3,19.3z"/>
		<path class="st1" d="M60.9,12.8c0-4.4,3.4-8.1,8.7-8.1c2.1,0,3.6,0.7,5,1.7c0.7,0.5,0.8,1.2,0.2,1.9l-0.9,1
			c-0.6,0.6-1.1,0.6-1.9,0.1c-0.8-0.5-1.6-0.6-2.4-0.6c-2.4,0-4,1.8-4,4.1s1.6,4,4,4c0.7,0,1.6-0.2,2.4-0.6c0.7-0.5,1.3-0.5,1.9,0.1
			l0.9,1c0.6,0.7,0.6,1.3-0.1,1.8c-1.4,1.1-3,1.7-5.1,1.7C64.3,20.9,60.9,17.1,60.9,12.8z"/>
		<path class="st1" d="M76,12.8c0-4.4,3.2-8.1,8.5-8.1c5.3,0,8.4,3.7,8.4,8.1c0,4.4-3.2,8.1-8.4,8.1C79.2,20.9,76,17.1,76,12.8z
			 M88.2,12.8c0-2.2-1.4-4.1-3.8-4.1c-2.4,0-3.8,1.9-3.8,4.1s1.4,4,3.8,4C86.9,16.8,88.2,15,88.2,12.8z"/>
		<path class="st1" d="M94.4,19.2l1.2-13C95.7,5.4,96.1,5,97,5h2.1c0.8,0,1.2,0.3,1.5,1l3.1,7.8l3.1-7.8c0.3-0.7,0.8-1,1.5-1h2.1
			c0.8,0,1.3,0.4,1.4,1.3l1.2,13c0.1,0.9-0.4,1.4-1.3,1.4h-2c-0.8,0-1.3-0.4-1.4-1.3l-0.5-5.9l-2.3,5.9c-0.3,0.7-0.8,1-1.5,1h-0.8
			c-0.8,0-1.3-0.3-1.5-1l-2.3-5.9l-0.5,5.9c-0.1,0.8-0.6,1.3-1.4,1.3h-2C94.8,20.6,94.3,20.1,94.4,19.2z"/>
		<path class="st1" d="M128.5,10.5c0,3-2,5.3-5.6,5.3H120v3.4c0,0.9-0.5,1.3-1.3,1.3h-2c-0.9,0-1.3-0.5-1.3-1.3v-13
			c0-0.9,0.5-1.3,1.3-1.3h6.3C126.5,5,128.5,7.5,128.5,10.5z M123.8,10.6c0-0.8-0.6-1.6-1.4-1.6H120v3.1h2.4
			C123.2,12.1,123.8,11.3,123.8,10.6z"/>
		<path class="st1" d="M130.1,14.5V6.3c0-0.9,0.5-1.3,1.3-1.3h2c0.9,0,1.3,0.5,1.3,1.3v8.2c0,1.5,0.9,2.3,2,2.3
			c1.1,0,2.1-0.8,2.1-2.3V6.3c0-0.9,0.5-1.3,1.3-1.3h2c0.9,0,1.3,0.5,1.3,1.3v8.2c0,4.1-3.1,6.3-6.8,6.3S130.1,18.6,130.1,14.5z"/>
		<path class="st1" d="M158.2,6.3v1.3c0,0.9-0.5,1.3-1.3,1.3H154v10.3c0,0.9-0.5,1.3-1.3,1.3h-1.9c-0.9,0-1.3-0.5-1.3-1.3V9h-2.8
			c-0.9,0-1.3-0.5-1.3-1.3V6.3c0-0.9,0.5-1.3,1.3-1.3h10.3C157.7,5,158.2,5.4,158.2,6.3z"/>
		<path class="st1" d="M160,19.3v-13c0-0.9,0.5-1.3,1.3-1.3h2c0.9,0,1.3,0.5,1.3,1.3v13c0,0.9-0.5,1.3-1.3,1.3h-2
			C160.5,20.6,160,20.1,160,19.3z"/>
		<path class="st1" d="M167.4,19.3v-13c0-0.9,0.5-1.3,1.3-1.3h1.3c0.7,0,1.2,0.3,1.6,0.8l4.6,6.5v-6c0-0.9,0.5-1.3,1.3-1.3h2
			c0.9,0,1.3,0.5,1.3,1.3v13c0,0.9-0.5,1.3-1.3,1.3h-1.3c-0.7,0-1.2-0.3-1.6-0.9l-4.6-6.6v6.1c0,0.9-0.5,1.3-1.3,1.3h-2
			C167.9,20.6,167.4,20.1,167.4,19.3z"/>
		<path class="st1" d="M182.9,12.8c0-4.4,3.4-8.1,8.7-8.1c1.8,0,3.2,0.4,4.4,1.1c0.8,0.5,0.8,1.2,0.2,1.9l-0.9,1
			c-0.5,0.6-1.1,0.6-1.9,0.3c-0.6-0.3-1.3-0.3-1.9-0.3c-2.4,0-4,1.8-4,4.1s1.6,4,4,4c0.5,0,1.3-0.1,1.9-0.2v-1.7h-1.9
			c-0.9,0-1.3-0.5-1.3-1.3v-0.7c0-0.9,0.5-1.3,1.3-1.3h5c0.9,0,1.3,0.5,1.3,1.3v4.5c0,0.7-0.2,1.2-0.7,1.6c-1.5,1.2-3.4,2-5.7,2
			C186.4,20.9,182.9,17.1,182.9,12.8z"/>
		<path class="st1" d="M21.4,12.7c0.6,0.4,1.2,1,1.5,1.7c0.3,0.7,0.4,1.5,0.2,2.3c-0.1,0.4-0.2,0.8-0.5,1.2c-0.4,0.6-1,1.2-1.7,1.5
			c-0.7,0.3-1.5,0.4-2.3,0.2c-0.4-0.1-0.8-0.2-1.2-0.5c-0.6-0.4-1.2-1-1.5-1.7c-0.5-1.2-1.9-1.8-3.1-1.3c-0.7,0.3-1.5,0.4-2.3,0.2
			c-0.4-0.1-0.8-0.2-1.2-0.5c-0.6-0.4-1.2-1-1.5-1.7c-0.3-0.7-0.4-1.5-0.2-2.3c0.1-0.4,0.2-0.8,0.5-1.2c0.4-0.6,1-1.2,1.7-1.5
			c1.2-0.5,1.8-1.9,1.3-3.1c-0.3-0.7-0.4-1.5-0.2-2.3C11,3.4,11.2,3,11.4,2.6c0.4-0.6,1-1.2,1.7-1.5c0.7-0.3,1.5-0.4,2.3-0.2
			c0.4,0.1,0.8,0.2,1.2,0.5c0.6,0.4,1.2,1,1.5,1.7c0.3,0.7,0.4,1.5,0.2,2.3c-0.1,0.4-0.2,0.8-0.5,1.2c-0.4,0.6-0.9,1.1-1.6,1.4
			c-1.1,0.5-1.8,1.7-1.4,2.9c0.4,1.4,1.9,2.1,3.2,1.5c0.7-0.3,1.5-0.4,2.3-0.2C20.6,12.3,21,12.5,21.4,12.7z"/>
		<path class="st1" d="M6.1,12.5C6,13.2,6,14,6.3,14.8c0.3,0.7,0.8,1.3,1.5,1.7C8.2,16.7,8.6,16.9,9,17c0.7,0.2,1.5,0.1,2.3-0.2
			c0.1,0,0.2-0.1,0.3-0.1c0,0,0,0,0,0l1.2,2.8c0.9,2.1-0.1,4.5-2.2,5.1c-1.8,0.6-3.9-0.3-4.6-2.1L0.5,9.9c-0.8-1.9,0-4.2,1.9-5
			c1-0.4,2-0.4,2.9,0c0.9,0.4,1.6,1.1,2.1,2l1.2,2.8c0,0,0,0,0,0c-0.1,0-0.2,0.1-0.2,0.1c-0.7,0.3-1.3,0.8-1.7,1.5
			C6.4,11.7,6.2,12.1,6.1,12.5z"/>
	</g>
</g>
<g>
	<g>
		<path class="st1" d="M22.9,6c-1.6,0-3-1.3-3-3c0-1.7,1.3-3,3-3c1.7,0,3,1.3,3,3C25.9,4.6,24.6,6,22.9,6z M22.9,0.4
			c-1.4,0-2.6,1.2-2.6,2.6c0,1.4,1.2,2.6,2.6,2.6c1.5,0,2.7-1.2,2.7-2.6C25.5,1.6,24.3,0.4,22.9,0.4z"/>
		<path class="st1" d="M23.5,3.2c0.2,0.4,0.5,0.9,0.7,1.3c-0.2,0-0.4,0-0.6,0c0,0-0.1-0.1-0.1-0.1c-0.2-0.3-0.4-0.7-0.5-1
			c0-0.1-0.1-0.1-0.2-0.1c-0.2,0-0.3,0-0.5,0c0,0.4,0,0.8,0,1.2c-0.2,0-0.4,0-0.5,0c0-1,0-2.1,0-3.2c0.5,0,1,0,1.5,0.1
			c0.4,0,0.7,0.3,0.7,0.7C24.1,2.6,24,3,23.5,3.2C23.6,3.2,23.5,3.2,23.5,3.2z M22.4,2.9c0.2,0,0.4,0,0.6,0c0.3,0,0.5-0.2,0.5-0.5
			c0-0.3-0.1-0.5-0.4-0.6c-0.2,0-0.5,0-0.7,0C22.4,2.2,22.4,2.6,22.4,2.9z"/>
	</g>
</g>
</svg>
