<svg width="24" height="24" viewBox="0 0 24 24" fill="none" xmlns="http://www.w3.org/2000/svg">
<mask id="path-1-inside-1_482_28" fill="white">
<path fill-rule="evenodd" clip-rule="evenodd" d="M9.558 5.03C9.424 5.001 9.27 5 8.823 5H6.2C5.632 5 5.236 5 4.927 5.026C4.625 5.05 4.451 5.096 4.319 5.163C4.03651 5.30685 3.80685 5.53651 3.663 5.819C3.596 5.951 3.55 6.125 3.526 6.427C3.5 6.736 3.5 7.132 3.5 7.7V16.3C3.5 16.868 3.5 17.264 3.526 17.573C3.55 17.875 3.596 18.049 3.663 18.181C3.80685 18.4635 4.03651 18.6931 4.319 18.837C4.451 18.904 4.625 18.95 4.927 18.974C5.236 19 5.632 19 6.2 19H17.8C18.368 19 18.765 19 19.073 18.974C19.375 18.95 19.549 18.904 19.681 18.837C19.9635 18.6931 20.1931 18.4635 20.337 18.181C20.404 18.049 20.45 17.875 20.474 17.573C20.5 17.264 20.5 16.868 20.5 16.3V10.7C20.5 10.132 20.5 9.736 20.474 9.427C20.45 9.125 20.404 8.951 20.337 8.819C20.1931 8.53651 19.9635 8.30685 19.681 8.163C19.549 8.096 19.375 8.05 19.073 8.026C18.765 8 18.368 8 17.8 8H13.627C13.249 8 12.989 8 12.745 7.951C12.1571 7.83325 11.6312 7.50816 11.263 7.035C11.11 6.839 10.994 6.606 10.826 6.269L10.803 6.224C10.603 5.824 10.532 5.687 10.448 5.579C10.227 5.29479 9.91106 5.09958 9.558 5.029M8.874 4C9.251 4 9.511 4 9.754 4.049C10.3422 4.16653 10.8686 4.49164 11.237 4.965C11.39 5.161 11.506 5.394 11.675 5.731L11.697 5.776C11.897 6.176 11.968 6.313 12.052 6.421C12.273 6.70521 12.5889 6.90042 12.942 6.971C13.076 6.998 13.23 7 13.677 7H17.821C18.363 7 18.801 7 19.154 7.029C19.519 7.059 19.839 7.122 20.135 7.272C20.6053 7.51189 20.9875 7.89451 21.227 8.365C21.378 8.661 21.441 8.981 21.471 9.345C21.5 9.7 21.5 10.137 21.5 10.679V16.321C21.5 16.863 21.5 17.301 21.471 17.654C21.441 18.019 21.378 18.339 21.227 18.635C20.9874 19.1051 20.6051 19.4874 20.135 19.727C19.839 19.878 19.519 19.941 19.155 19.971C18.8 20 18.362 20 17.82 20H6.18C5.638 20 5.2 20 4.847 19.971C4.482 19.941 4.162 19.878 3.866 19.727C3.39551 19.4875 3.0129 19.1053 2.773 18.635C2.623 18.339 2.56 18.019 2.53 17.655C2.5 17.3 2.5 16.862 2.5 16.32V7.68C2.5 7.138 2.5 6.7 2.529 6.347C2.559 5.982 2.622 5.662 2.772 5.366C3.01173 4.89535 3.39435 4.51272 3.865 4.273C4.161 4.123 4.481 4.06 4.845 4.03C5.2 4 5.638 4 6.18 4H8.874Z"/>
</mask>
<path d="M4.927 5.026L5.00622 6.02287L5.01085 6.02248L4.927 5.026ZM4.319 5.163L3.86639 4.27129L3.86522 4.27189L4.319 5.163ZM3.663 5.819L2.77189 5.36522L2.77129 5.36639L3.663 5.819ZM3.526 6.427L4.52249 6.51085L4.52286 6.50622L3.526 6.427ZM3.526 17.573L4.52287 17.4938L4.52248 17.4892L3.526 17.573ZM3.663 18.181L2.77129 18.6336L2.77189 18.6348L3.663 18.181ZM4.319 18.837L3.86522 19.7281L3.86639 19.7287L4.319 18.837ZM4.927 18.974L5.01085 17.9775L5.00622 17.9771L4.927 18.974ZM19.073 18.974L18.9938 17.9771L18.9889 17.9775L19.073 18.974ZM19.681 18.837L20.1336 19.7287L20.1348 19.7281L19.681 18.837ZM20.337 18.181L21.2281 18.6348L21.2287 18.6336L20.337 18.181ZM20.474 17.573L19.4775 17.4892L19.4771 17.4938L20.474 17.573ZM20.474 9.427L19.4771 9.50622L19.4775 9.51085L20.474 9.427ZM20.337 8.819L21.2287 8.36639L21.2281 8.36522L20.337 8.819ZM19.681 8.163L20.1348 7.27189L20.1336 7.27129L19.681 8.163ZM19.073 8.026L18.9889 9.02247L18.9938 9.02286L19.073 8.026ZM12.745 7.951L12.9419 6.97057L12.9414 6.97048L12.745 7.951ZM11.263 7.035L12.0522 6.42088L12.0513 6.41967L11.263 7.035ZM10.826 6.269L11.721 5.82283L11.7164 5.81389L10.826 6.269ZM10.803 6.224L9.90854 6.67123L9.91256 6.67911L10.803 6.224ZM10.448 5.579L9.65864 6.19293L9.65865 6.19294L10.448 5.579ZM9.754 4.049L9.55633 5.02927L9.55806 5.02962L9.754 4.049ZM11.237 4.965L10.4479 5.57922L10.4487 5.58033L11.237 4.965ZM11.675 5.731L12.5734 5.29178L12.5689 5.28273L11.675 5.731ZM11.697 5.776L10.7986 6.21522L10.8026 6.22321L11.697 5.776ZM12.052 6.421L12.8414 5.80707L12.8414 5.80706L12.052 6.421ZM12.942 6.971L13.1395 5.9907L13.138 5.9904L12.942 6.971ZM19.154 7.029L19.2359 6.03236L19.2359 6.03236L19.154 7.029ZM20.135 7.272L20.5894 6.3812L20.587 6.38L20.135 7.272ZM21.227 8.365L20.3358 8.81859L20.3362 8.81942L21.227 8.365ZM21.471 9.345L22.4677 9.26358L22.4676 9.26286L21.471 9.345ZM21.471 17.654L22.4676 17.7359L22.4676 17.7359L21.471 17.654ZM21.227 18.635L20.3362 18.1806L20.3361 18.1809L21.227 18.635ZM20.135 19.727L19.6809 18.8361L19.6806 18.8362L20.135 19.727ZM19.155 19.971L19.2364 20.9677L19.2371 20.9676L19.155 19.971ZM4.847 19.971L4.76508 20.9676L4.76512 20.9676L4.847 19.971ZM3.866 19.727L4.32042 18.8362L4.31959 18.8358L3.866 19.727ZM2.773 18.635L1.88099 19.087L1.88221 19.0894L2.773 18.635ZM2.53 17.655L3.52662 17.5729L3.52645 17.5708L2.53 17.655ZM2.529 6.347L1.53236 6.26508L1.53236 6.26512L2.529 6.347ZM2.772 5.366L1.88093 4.91213L1.88 4.91397L2.772 5.366ZM3.865 4.273L3.41297 3.38099L3.41113 3.38193L3.865 4.273ZM4.845 4.03L4.92714 5.02662L4.92921 5.02645L4.845 4.03ZM9.558 5.03L9.76952 4.05263C9.50361 3.99508 9.21282 4 8.823 4V5V6C9.05319 6 9.18331 6.00039 9.27302 6.00352C9.35571 6.0064 9.3616 6.01065 9.34648 6.00737L9.558 5.03ZM8.823 5V4H6.2V5V6H8.823V5ZM6.2 5V4C5.6503 4 5.20411 3.99915 4.84315 4.02952L4.927 5.026L5.01085 6.02248C5.26789 6.00085 5.6137 6 6.2 6V5ZM4.927 5.026L4.84778 4.02914C4.4829 4.05814 4.16275 4.12086 3.86639 4.27129L4.319 5.163L4.77161 6.05471C4.73925 6.07114 4.7671 6.04186 5.00622 6.02286L4.927 5.026ZM4.319 5.163L3.86522 4.27189C3.3944 4.51164 3.01164 4.8944 2.77189 5.36522L3.663 5.819L4.55411 6.27278C4.60206 6.17862 4.67862 6.10206 4.77278 6.05411L4.319 5.163ZM3.663 5.819L2.77129 5.36639C2.62086 5.66275 2.55814 5.9829 2.52914 6.34778L3.526 6.427L4.52286 6.50622C4.54186 6.2671 4.57114 6.23925 4.55471 6.27161L3.663 5.819ZM3.526 6.427L2.52952 6.34315C2.49915 6.70411 2.5 7.1503 2.5 7.7H3.5H4.5C4.5 7.1137 4.50085 6.76789 4.52248 6.51085L3.526 6.427ZM3.5 7.7H2.5V16.3H3.5H4.5V7.7H3.5ZM3.5 16.3H2.5C2.5 16.8497 2.49915 17.2959 2.52952 17.6568L3.526 17.573L4.52248 17.4892C4.50085 17.2321 4.5 16.8863 4.5 16.3H3.5ZM3.526 17.573L2.52914 17.6522C2.55814 18.0171 2.62086 18.3372 2.77129 18.6336L3.663 18.181L4.55471 17.7284C4.57114 17.7608 4.54186 17.7329 4.52286 17.4938L3.526 17.573ZM3.663 18.181L2.77189 18.6348C3.01164 19.1056 3.3944 19.4884 3.86522 19.7281L4.319 18.837L4.77278 17.9459C4.67862 17.8979 4.60207 17.8214 4.55411 17.7272L3.663 18.181ZM4.319 18.837L3.86639 19.7287C4.16275 19.8791 4.48289 19.9419 4.84778 19.9709L4.927 18.974L5.00622 17.9771C4.76711 17.9581 4.73925 17.9289 4.77161 17.9453L4.319 18.837ZM4.927 18.974L4.84315 19.9705C5.20411 20.0009 5.65031 20 6.2 20V19V18C5.61369 18 5.26789 17.9992 5.01085 17.9775L4.927 18.974ZM6.2 19V20H17.8V19V18H6.2V19ZM17.8 19V20C18.3495 20 18.797 20.0009 19.1571 19.9705L19.073 18.974L18.9889 17.9775C18.733 17.9991 18.3865 18 17.8 18V19ZM19.073 18.974L19.1522 19.9709C19.5171 19.9419 19.8372 19.8791 20.1336 19.7287L19.681 18.837L19.2284 17.9453C19.2608 17.9289 19.2329 17.9581 18.9938 17.9771L19.073 18.974ZM19.681 18.837L20.1348 19.7281C20.6056 19.4884 20.9884 19.1056 21.2281 18.6348L20.337 18.181L19.4459 17.7272C19.3979 17.8214 19.3214 17.8979 19.2272 17.9459L19.681 18.837ZM20.337 18.181L21.2287 18.6336C21.3791 18.3372 21.4419 18.0171 21.4709 17.6522L20.474 17.573L19.4771 17.4938C19.4581 17.7329 19.4289 17.7608 19.4453 17.7284L20.337 18.181ZM20.474 17.573L21.4705 17.6568C21.5009 17.2959 21.5 16.8497 21.5 16.3H20.5H19.5C19.5 16.8863 19.4992 17.2321 19.4775 17.4892L20.474 17.573ZM20.5 16.3H21.5V10.7H20.5H19.5V16.3H20.5ZM20.5 10.7H21.5C21.5 10.1503 21.5009 9.70411 21.4705 9.34315L20.474 9.427L19.4775 9.51085C19.4992 9.76789 19.5 10.1137 19.5 10.7H20.5ZM20.474 9.427L21.4709 9.34778C21.4419 8.98289 21.3791 8.66275 21.2287 8.36639L20.337 8.819L19.4453 9.27161C19.4289 9.23925 19.4581 9.26711 19.4771 9.50622L20.474 9.427ZM20.337 8.819L21.2281 8.36522C20.9884 7.8944 20.6056 7.51164 20.1348 7.27189L19.681 8.163L19.2272 9.05411C19.3214 9.10206 19.3979 9.17862 19.4459 9.27278L20.337 8.819ZM19.681 8.163L20.1336 7.27129C19.8372 7.12086 19.5171 7.05814 19.1522 7.02914L19.073 8.026L18.9938 9.02286C19.2329 9.04186 19.2608 9.07114 19.2284 9.05471L19.681 8.163ZM19.073 8.026L19.1571 7.02954C18.797 6.99914 18.3495 7 17.8 7V8V9C18.3865 9 18.733 9.00086 18.9889 9.02246L19.073 8.026ZM17.8 8V7H13.627V8V9H17.8V8ZM13.627 8V7C13.2185 7 13.0681 6.99593 12.9419 6.97057L12.745 7.951L12.5481 8.93143C12.9099 9.00407 13.2794 9 13.627 9V8ZM12.745 7.951L12.9414 6.97048C12.5887 6.89983 12.2731 6.70477 12.0522 6.42088L11.263 7.035L10.4738 7.64912C10.9892 8.31154 11.7256 8.76666 12.5486 8.93152L12.745 7.951ZM11.263 7.035L12.0513 6.41967C11.9731 6.31949 11.9029 6.18786 11.721 5.82285L10.826 6.269L9.93104 6.71515C10.0851 7.02414 10.2469 7.35851 10.4747 7.65033L11.263 7.035ZM10.826 6.269L11.7164 5.81389L11.6934 5.76889L10.803 6.224L9.91256 6.67911L9.93556 6.72411L10.826 6.269ZM10.803 6.224L11.6974 5.77679C11.5182 5.4184 11.3972 5.17064 11.2374 4.96506L10.448 5.579L9.65865 6.19294C9.65865 6.19294 9.65864 6.19294 9.65864 6.19293C9.65863 6.19292 9.65862 6.19291 9.65862 6.1929C9.6586 6.19288 9.65859 6.19286 9.6586 6.19287C9.6586 6.19288 9.65875 6.19308 9.65908 6.19355C9.65969 6.19442 9.66147 6.19702 9.66465 6.20207C9.67146 6.21288 9.68355 6.23312 9.70385 6.27038C9.74702 6.34963 9.80647 6.467 9.90857 6.67121L10.803 6.224ZM10.448 5.579L11.2374 4.96507C10.869 4.49139 10.3425 4.16603 9.75403 4.0484L9.558 5.029L9.36197 6.0096C9.47966 6.03312 9.58496 6.0982 9.65864 6.19293L10.448 5.579ZM8.874 4V5C9.28178 5 9.4316 5.00412 9.55633 5.02927L9.754 4.049L9.95167 3.06873C9.5904 2.99588 9.22022 3 8.874 3V4ZM9.754 4.049L9.55806 5.02962C9.91099 5.10014 10.2268 5.2952 10.4479 5.57922L11.237 4.965L12.0261 4.35078C11.5103 3.68808 10.7734 3.23293 9.94994 3.06838L9.754 4.049ZM11.237 4.965L10.4487 5.58033C10.5274 5.68116 10.5972 5.81257 10.7811 6.17927L11.675 5.731L12.5689 5.28273C12.4148 4.97543 12.2526 4.64085 12.0253 4.34967L11.237 4.965ZM11.675 5.731L10.7766 6.1702L10.7986 6.2152L11.697 5.776L12.5954 5.3368L12.5734 5.2918L11.675 5.731ZM11.697 5.776L10.8026 6.22321C10.9818 6.5816 11.1028 6.82936 11.2626 7.03494L12.052 6.421L12.8414 5.80706C12.8414 5.80706 12.8414 5.80706 12.8414 5.80707C12.8414 5.80708 12.8414 5.80709 12.8414 5.8071C12.8414 5.80712 12.8414 5.80714 12.8414 5.80713C12.8414 5.80712 12.8413 5.80692 12.8409 5.80645C12.8403 5.80558 12.8385 5.80298 12.8353 5.79793C12.8285 5.78712 12.8165 5.76688 12.7962 5.72962C12.753 5.65037 12.6935 5.533 12.5914 5.32879L11.697 5.776ZM12.052 6.421L11.2626 7.03493C11.631 7.50861 12.1575 7.83397 12.746 7.9516L12.942 6.971L13.138 5.9904C13.0203 5.96688 12.915 5.9018 12.8414 5.80707L12.052 6.421ZM12.942 6.971L12.7445 7.9513C13.0008 8.00295 13.2781 8 13.677 8V7V6C13.4485 6 13.3171 5.99938 13.227 5.99623C13.1435 5.99332 13.1317 5.98912 13.1395 5.9907L12.942 6.971ZM13.677 7V8H17.821V7V6H13.677V7ZM17.821 7V8C18.3784 8 18.7693 8.00076 19.0721 8.02564L19.154 7.029L19.2359 6.03236C18.8327 5.99924 18.3476 6 17.821 6V7ZM19.154 7.029L19.0721 8.02564C19.3752 8.05055 19.5502 8.09673 19.683 8.164L20.135 7.272L20.587 6.38C20.1278 6.14727 19.6628 6.06745 19.2359 6.03236L19.154 7.029ZM20.135 7.272L19.6806 8.16279C19.9628 8.30673 20.1921 8.5363 20.3358 8.81859L21.227 8.365L22.1182 7.91141C21.783 7.25272 21.2478 6.71706 20.5894 6.38121L20.135 7.272ZM21.227 8.365L20.3362 8.81942C20.4034 8.95109 20.4495 9.12494 20.4744 9.42714L21.471 9.345L22.4676 9.26286C22.4325 8.83706 22.3526 8.37091 22.1178 7.91058L21.227 8.365ZM21.471 9.345L20.4743 9.42642C20.4993 9.73161 20.5 10.1219 20.5 10.679H21.5H22.5C22.5 10.1521 22.5007 9.6684 22.4677 9.26358L21.471 9.345ZM21.5 10.679H20.5V16.321H21.5H22.5V10.679H21.5ZM21.5 16.321H20.5C20.5 16.8784 20.4992 17.2693 20.4744 17.5721L21.471 17.654L22.4676 17.7359C22.5008 17.3327 22.5 16.8476 22.5 16.321H21.5ZM21.471 17.654L20.4744 17.5721C20.4494 17.8753 20.4033 18.049 20.3362 18.1806L21.227 18.635L22.1178 19.0894C22.3527 18.629 22.4326 18.1627 22.4676 17.7359L21.471 17.654ZM21.227 18.635L20.3361 18.1809C20.1923 18.4629 19.9629 18.6923 19.6809 18.8361L20.135 19.727L20.5891 20.6179C21.2473 20.2824 21.7824 19.7473 22.1179 19.0891L21.227 18.635ZM20.135 19.727L19.6806 18.8362C19.5489 18.9034 19.3751 18.9495 19.0729 18.9744L19.155 19.971L19.2371 20.9676C19.6629 20.9325 20.1291 20.8526 20.5894 20.6178L20.135 19.727ZM19.155 19.971L19.0736 18.9743C18.7684 18.9993 18.3771 19 17.82 19V20V21C18.3469 21 18.8316 21.0008 19.2364 20.9677L19.155 19.971ZM17.82 20V19H6.18V20V21H17.82V20ZM6.18 20V19C5.62263 19 5.23173 18.9992 4.92888 18.9744L4.847 19.971L4.76512 20.9676C5.16827 21.0008 5.65337 21 6.18 21V20ZM4.847 19.971L4.92892 18.9744C4.6257 18.9494 4.45196 18.9033 4.32042 18.8362L3.866 19.727L3.41158 20.6178C3.87204 20.8527 4.3383 20.9326 4.76508 20.9676L4.847 19.971ZM3.866 19.727L4.31959 18.8358C4.0373 18.6921 3.80773 18.4628 3.66379 18.1806L2.773 18.635L1.88221 19.0894C2.21806 19.7478 2.75372 20.283 3.41241 20.6182L3.866 19.727ZM2.773 18.635L3.665 18.183C3.59767 18.0501 3.55152 17.875 3.52662 17.5729L2.53 17.655L1.53338 17.7371C1.56848 18.163 1.64833 18.6279 1.881 19.087L2.773 18.635ZM2.53 17.655L3.52645 17.5708C3.5008 17.2673 3.5 16.8776 3.5 16.32H2.5H1.5C1.5 16.8464 1.4992 17.3327 1.53355 17.7392L2.53 17.655ZM2.5 16.32H3.5V7.68H2.5H1.5V16.32H2.5ZM2.5 7.68H3.5C3.5 7.12263 3.50076 6.73174 3.52564 6.42888L2.529 6.347L1.53236 6.26512C1.49924 6.66826 1.5 7.15337 1.5 7.68H2.5ZM2.529 6.347L3.52564 6.42892C3.55055 6.12579 3.59673 5.95078 3.664 5.81803L2.772 5.366L1.88 4.91397C1.64727 5.37322 1.56745 5.83821 1.53236 6.26508L2.529 6.347ZM2.772 5.366L3.66307 5.81987C3.8069 5.53748 4.03648 5.3079 4.31887 5.16407L3.865 4.273L3.41113 3.38193C2.75223 3.71755 2.21655 4.25323 1.88093 4.91213L2.772 5.366ZM3.865 4.273L4.31703 5.165C4.44991 5.09767 4.62503 5.05152 4.92714 5.02662L4.845 4.03L4.76286 3.03338C4.33697 3.06848 3.87209 3.14833 3.41297 3.381L3.865 4.273ZM4.845 4.03L4.92921 5.02645C5.23268 5.0008 5.62236 5 6.18 5V4V3C5.65364 3 5.16731 2.9992 4.76079 3.03355L4.845 4.03ZM6.18 4V5H8.874V4V3H6.18V4Z" fill="#2C2C2E" mask="url(#path-1-inside-1_482_28)"/>
<mask id="path-3-inside-2_482_28" fill="white">
<path d="M12.866 10H12.882C13.095 10 13.267 10.174 13.267 10.389C13.2673 10.4398 13.2575 10.4902 13.2383 10.5373C13.2191 10.5843 13.1908 10.6271 13.1551 10.6632C13.1193 10.6994 13.0768 10.7281 13.0299 10.7478C12.9831 10.7675 12.9328 10.7777 12.882 10.778C12.217 10.778 11.712 10.778 11.309 10.81C10.906 10.843 10.649 10.905 10.469 11.003C10.0921 11.2095 9.79011 11.5297 9.606 11.918C9.508 12.122 9.449 12.374 9.419 12.767C9.389 13.163 9.389 13.668 9.389 14.371V14.428L9.964 13.848C9.99969 13.8121 10.0421 13.7835 10.0889 13.764C10.1357 13.7446 10.1858 13.7346 10.2365 13.7346C10.2872 13.7346 10.3373 13.7446 10.3841 13.764C10.4308 13.7835 10.4733 13.8121 10.509 13.848C10.5817 13.9211 10.6225 14.0199 10.6225 14.123C10.6225 14.2261 10.5817 14.3249 10.509 14.398L9.275 15.642C9.23815 15.6792 9.19408 15.7085 9.14549 15.7281C9.09691 15.7476 9.04483 15.757 8.99247 15.7557C8.94011 15.7544 8.88857 15.7424 8.84103 15.7205C8.79348 15.6985 8.75093 15.667 8.716 15.628L7.6 14.383C7.5308 14.3064 7.49478 14.2055 7.49984 14.1024C7.5049 13.9993 7.55063 13.9024 7.627 13.833C7.6645 13.7988 7.70842 13.7724 7.75619 13.7553C7.80397 13.7382 7.85466 13.7307 7.90533 13.7333C7.95601 13.7359 8.00567 13.7486 8.05144 13.7705C8.09721 13.7924 8.13819 13.8232 8.172 13.861L8.617 14.357V14.355C8.617 13.672 8.617 13.136 8.65 12.706C8.684 12.269 8.754 11.906 8.912 11.578C9.172 11.038 9.588 10.596 10.104 10.318C10.426 10.144 10.809 10.07 11.248 10.035C11.685 10 12.221 10 12.866 10ZM15.007 11.245C15.0594 11.2459 15.1111 11.2577 15.1588 11.2795C15.2065 11.3014 15.2491 11.3329 15.284 11.372L16.4 12.617C16.4692 12.6936 16.5052 12.7945 16.5001 12.8976C16.4951 13.0007 16.4494 13.0976 16.373 13.167C16.3355 13.2013 16.2917 13.2278 16.2439 13.245C16.1961 13.2622 16.1454 13.2697 16.0946 13.2671C16.0439 13.2645 15.9942 13.2518 15.9485 13.2298C15.9027 13.2078 15.8617 13.177 15.828 13.139L15.383 12.643V12.645C15.383 13.328 15.383 13.864 15.35 14.294C15.316 14.731 15.246 15.094 15.088 15.422C14.828 15.962 14.412 16.404 13.896 16.682C13.574 16.856 13.191 16.93 12.752 16.965C12.315 17 11.779 17 11.134 17H11.118C11.0672 16.9997 11.0169 16.9895 10.97 16.9698C10.9232 16.9501 10.8807 16.9214 10.8449 16.8852C10.8092 16.8491 10.7809 16.8063 10.7617 16.7593C10.7425 16.7122 10.7327 16.6618 10.733 16.611C10.733 16.396 10.905 16.222 11.118 16.222C11.783 16.222 12.288 16.222 12.691 16.189C13.094 16.157 13.351 16.095 13.531 15.997C13.901 15.798 14.203 15.479 14.394 15.082C14.492 14.878 14.551 14.626 14.581 14.233C14.611 13.837 14.611 13.332 14.611 12.629V12.572L14.036 13.152C14.0003 13.1879 13.9578 13.2165 13.9111 13.236C13.8643 13.2554 13.8142 13.2654 13.7635 13.2654C13.7128 13.2654 13.6627 13.2554 13.6159 13.236C13.5691 13.2165 13.5267 13.1879 13.491 13.152C13.4183 13.0789 13.3775 12.9801 13.3775 12.877C13.3775 12.7739 13.4183 12.6751 13.491 12.602L14.725 11.358C14.7617 11.3208 14.8057 11.2915 14.8542 11.2721C14.9027 11.2526 14.9547 11.2434 15.007 11.245Z"/>
</mask>
<path d="M13.267 10.389L12.267 10.389L12.267 10.3942L13.267 10.389ZM12.882 10.778V11.778L12.8872 11.778L12.882 10.778ZM11.309 10.81L11.2298 9.81314L11.2274 9.81334L11.309 10.81ZM10.469 11.003L9.99083 10.1247L9.98847 10.126L10.469 11.003ZM9.606 11.918L10.5074 12.351L10.5096 12.3465L9.606 11.918ZM9.419 12.767L8.4219 12.6909L8.42185 12.6915L9.419 12.767ZM9.389 14.428H8.389V16.8571L10.0992 15.132L9.389 14.428ZM9.964 13.848L9.25436 13.1434L9.25383 13.144L9.964 13.848ZM10.509 13.848L9.79936 14.5526L9.79992 14.5531L10.509 13.848ZM10.509 14.398L9.79991 13.6929L9.79904 13.6938L10.509 14.398ZM9.275 15.642L8.56504 14.9378L8.56429 14.9385L9.275 15.642ZM8.716 15.628L9.46102 14.961L9.46063 14.9605L8.716 15.628ZM7.6 14.383L8.34463 13.7155L8.34199 13.7126L7.6 14.383ZM7.627 13.833L8.29976 14.5729L8.30053 14.5722L7.627 13.833ZM8.172 13.861L7.42626 14.5272L7.42766 14.5288L8.172 13.861ZM8.617 14.357L7.87266 15.0248L9.617 16.9691V14.357H8.617ZM8.65 12.706L7.65301 12.6284L7.65293 12.6295L8.65 12.706ZM8.912 11.578L9.81292 12.012L9.813 12.0118L8.912 11.578ZM10.104 10.318L10.5783 11.1984L10.5794 11.1978L10.104 10.318ZM11.248 10.035L11.3275 11.0318L11.3278 11.0318L11.248 10.035ZM15.007 11.245L14.9769 12.2446L14.9897 12.2448L15.007 11.245ZM15.284 11.372L14.5377 12.0376L14.5394 12.0395L15.284 11.372ZM16.4 12.617L15.6554 13.2845L15.658 13.2874L16.4 12.617ZM16.373 13.167L15.7002 12.4271L15.6975 12.4296L16.373 13.167ZM15.828 13.139L16.5755 12.4747L16.5723 12.4712L15.828 13.139ZM15.383 12.643L16.1273 11.9752L14.383 10.0309V12.643H15.383ZM15.35 14.294L16.347 14.3716L16.3471 14.3705L15.35 14.294ZM15.088 15.422L14.1871 14.988L14.187 14.9882L15.088 15.422ZM13.896 16.682L13.4217 15.8016L13.4206 15.8022L13.896 16.682ZM12.752 16.965L12.6725 15.9682L12.6722 15.9682L12.752 16.965ZM11.118 17L11.1128 18H11.118V17ZM10.733 16.611L11.733 16.6162V16.611L10.733 16.611ZM12.691 16.189L12.6118 15.1921L12.6094 15.1923L12.691 16.189ZM13.531 15.997L13.0573 15.1163L13.0528 15.1187L13.531 15.997ZM14.394 15.082L15.2951 15.5155L15.2954 15.515L14.394 15.082ZM14.581 14.233L15.5781 14.3091L15.5781 14.3085L14.581 14.233ZM14.611 12.572H15.611V10.1429L13.9008 11.868L14.611 12.572ZM14.036 13.152L14.7456 13.8566L14.7462 13.856L14.036 13.152ZM13.491 13.152L14.2006 12.4474L14.2001 12.4469L13.491 13.152ZM13.3775 12.877L14.3775 12.877L13.3775 12.877ZM13.491 12.602L14.2001 13.3071L14.201 13.3062L13.491 12.602ZM14.725 11.358L15.435 12.0623L15.437 12.0602L14.725 11.358ZM12.866 10V11H12.882V10V9H12.866V10ZM12.882 10V11C12.5326 11 12.267 10.7162 12.267 10.389H13.267H14.267C14.267 9.63184 13.6574 9 12.882 9V10ZM13.267 10.389L12.267 10.3942C12.2666 10.3137 12.282 10.2339 12.3125 10.1594L13.2383 10.5373L14.1642 10.9151C14.233 10.7465 14.2679 10.566 14.267 10.3838L13.267 10.389ZM13.2383 10.5373L12.3125 10.1594C12.3429 10.0848 12.3877 10.017 12.4443 9.95979L13.1551 10.6632L13.8658 11.3667C13.9939 11.2372 14.0953 11.0838 14.1642 10.9151L13.2383 10.5373ZM13.1551 10.6632L12.4443 9.95979C12.5009 9.90257 12.5683 9.85707 12.6425 9.82588L13.0299 10.7478L13.4174 11.6697C13.5853 11.5991 13.7377 11.4961 13.8658 11.3667L13.1551 10.6632ZM13.0299 10.7478L12.6425 9.82588C12.7167 9.7947 12.7963 9.77843 12.8768 9.77801L12.882 10.778L12.8872 11.778C13.0693 11.777 13.2495 11.7402 13.4174 11.6697L13.0299 10.7478ZM12.882 10.778L12.882 9.778C12.2328 9.778 11.6815 9.77727 11.2298 9.81314L11.309 10.81L11.3882 11.8069C11.7424 11.7787 12.2012 11.778 12.882 11.778L12.882 10.778ZM11.309 10.81L11.2274 9.81334C10.7814 9.84985 10.3564 9.92571 9.99083 10.1247L10.469 11.003L10.9472 11.8813C10.9391 11.8857 10.9588 11.8731 11.0318 11.8562C11.1062 11.8389 11.2196 11.8207 11.3906 11.8067L11.309 10.81ZM10.469 11.003L9.98847 10.126C9.42688 10.4337 8.9768 10.9109 8.70243 11.4895L9.606 11.918L10.5096 12.3465C10.6034 12.1485 10.7574 11.9853 10.9495 11.88L10.469 11.003ZM9.606 11.918L8.70461 11.485C8.53081 11.8468 8.45651 12.2375 8.4219 12.6909L9.419 12.767L10.4161 12.8431C10.4415 12.5105 10.4852 12.3972 10.5074 12.351L9.606 11.918ZM9.419 12.767L8.42185 12.6915C8.38831 13.1342 8.389 13.6841 8.389 14.371H9.389H10.389C10.389 13.6519 10.3897 13.1918 10.4161 12.8425L9.419 12.767ZM9.389 14.371H8.389V14.428H9.389H10.389V14.371H9.389ZM9.389 14.428L10.0992 15.132L10.6742 14.552L9.964 13.848L9.25383 13.144L8.67883 13.724L9.389 14.428ZM9.964 13.848L10.6736 14.5526C10.6164 14.6102 10.5483 14.656 10.4732 14.6872L10.0889 13.764L9.70457 12.8409C9.53601 12.911 9.38301 13.0139 9.25436 13.1434L9.964 13.848ZM10.0889 13.764L10.4732 14.6872C10.3982 14.7185 10.3178 14.7346 10.2365 14.7346V13.7346V12.7346C10.0539 12.7346 9.87313 12.7707 9.70457 12.8409L10.0889 13.764ZM10.2365 13.7346V14.7346C10.1552 14.7346 10.0748 14.7185 9.99974 14.6872L10.3841 13.764L10.7684 12.8409C10.5999 12.7707 10.4191 12.7346 10.2365 12.7346V13.7346ZM10.3841 13.764L9.99974 14.6872C9.92472 14.656 9.85662 14.6102 9.79936 14.5526L10.509 13.848L11.2186 13.1434C11.09 13.0139 10.937 12.911 10.7684 12.8409L10.3841 13.764ZM10.509 13.848L9.79992 14.5531C9.68625 14.4388 9.62245 14.2842 9.62245 14.123H10.6225H11.6225C11.6225 13.7557 11.4771 13.4033 11.2181 13.1429L10.509 13.848ZM10.6225 14.123H9.62245C9.62245 13.9618 9.68625 13.8072 9.79992 13.6929L10.509 14.398L11.2181 15.1031C11.4771 14.8427 11.6225 14.4903 11.6225 14.123H10.6225ZM10.509 14.398L9.79904 13.6938L8.56504 14.9378L9.275 15.642L9.98495 16.3462L11.2189 15.1022L10.509 14.398ZM9.275 15.642L8.56429 14.9385C8.6234 14.8788 8.6941 14.8318 8.77204 14.8004L9.14549 15.7281L9.51894 16.6557C9.69406 16.5852 9.8529 16.4797 9.9857 16.3455L9.275 15.642ZM9.14549 15.7281L8.77204 14.8004C8.84998 14.769 8.93352 14.7539 9.01751 14.7561L8.99247 15.7557L8.96744 16.7554C9.15615 16.7602 9.34383 16.7262 9.51894 16.6557L9.14549 15.7281ZM8.99247 15.7557L9.01751 14.7561C9.10151 14.7582 9.18418 14.7774 9.26045 14.8127L8.84103 15.7205L8.42161 16.6282C8.59297 16.7074 8.77872 16.7507 8.96744 16.7554L8.99247 15.7557ZM8.84103 15.7205L9.26045 14.8127C9.33671 14.8479 9.40497 14.8984 9.46102 14.961L8.716 15.628L7.97097 16.295C8.09689 16.4357 8.25025 16.5491 8.42161 16.6282L8.84103 15.7205ZM8.716 15.628L9.46063 14.9605L8.34463 13.7155L7.6 14.383L6.85536 15.0505L7.97136 16.2955L8.716 15.628ZM7.6 14.383L8.34199 13.7126C8.45023 13.8324 8.50656 13.9902 8.49864 14.1515L7.49984 14.1024L6.50105 14.0534C6.48301 14.4208 6.61137 14.7804 6.858 15.0534L7.6 14.383ZM7.49984 14.1024L8.49864 14.1515C8.49073 14.3127 8.41921 14.4642 8.29976 14.5729L7.627 13.833L6.95423 13.0931C6.68205 13.3406 6.51908 13.686 6.50105 14.0534L7.49984 14.1024ZM7.627 13.833L8.30053 14.5722C8.24036 14.627 8.16992 14.6693 8.09328 14.6968L7.75619 13.7553L7.4191 12.8138C7.24691 12.8755 7.08865 12.9707 6.95346 13.0938L7.627 13.833ZM7.75619 13.7553L8.09328 14.6968C8.01664 14.7242 7.93532 14.7362 7.85403 14.732L7.90533 13.7333L7.95664 12.7347C7.77399 12.7253 7.59129 12.7522 7.4191 12.8138L7.75619 13.7553ZM7.90533 13.7333L7.85403 14.732C7.77273 14.7278 7.69307 14.7076 7.61964 14.6725L8.05144 13.7705L8.48324 12.8685C8.31828 12.7895 8.1393 12.744 7.95664 12.7347L7.90533 13.7333ZM8.05144 13.7705L7.61964 14.6725C7.54622 14.6373 7.48049 14.5879 7.42626 14.5272L8.172 13.861L8.91773 13.1948C8.79588 13.0584 8.64821 12.9475 8.48324 12.8685L8.05144 13.7705ZM8.172 13.861L7.42766 14.5288L7.87266 15.0248L8.617 14.357L9.36133 13.6892L8.91633 13.1932L8.172 13.861ZM8.617 14.357H9.617V14.355H8.617H7.617V14.357H8.617ZM8.617 14.355H9.617C9.617 13.6572 9.61767 13.1655 9.64706 12.7825L8.65 12.706L7.65293 12.6295C7.61632 13.1065 7.617 13.6868 7.617 14.355H8.617ZM8.65 12.706L9.64698 12.7836C9.67655 12.4035 9.73172 12.1805 9.81292 12.012L8.912 11.578L8.01107 11.144C7.77627 11.6315 7.69144 12.1345 7.65301 12.6284L8.65 12.706ZM8.912 11.578L9.813 12.0118C9.98492 11.6547 10.255 11.3725 10.5783 11.1984L10.104 10.318L9.62969 9.43764C8.92097 9.81947 8.35907 10.4213 8.01099 11.1442L8.912 11.578ZM10.104 10.318L10.5794 11.1978C10.7192 11.1222 10.9379 11.0629 11.3275 11.0318L11.248 10.035L11.1685 9.03816C10.6801 9.0771 10.1328 9.16579 9.62859 9.43823L10.104 10.318ZM11.248 10.035L11.3278 11.0318C11.7161 11.0007 12.2066 11 12.866 11V10V9C12.2354 9 11.6539 8.99929 11.1682 9.03819L11.248 10.035ZM15.007 11.245L14.9897 12.2448C14.9041 12.2434 14.8198 12.2242 14.742 12.1885L15.1588 11.2795L15.5756 10.3705C15.4024 10.2911 15.2147 10.2484 15.0243 10.2451L15.007 11.245ZM15.1588 11.2795L14.742 12.1885C14.6642 12.1529 14.5947 12.1015 14.5377 12.0376L15.284 11.372L16.0303 10.7064C15.9035 10.5642 15.7487 10.4499 15.5756 10.3705L15.1588 11.2795ZM15.284 11.372L14.5394 12.0395L15.6554 13.2845L16.4 12.617L17.1446 11.9495L16.0286 10.7045L15.284 11.372ZM16.4 12.617L15.658 13.2874C15.5498 13.1676 15.4934 13.0098 15.5014 12.8485L16.5001 12.8976L17.4989 12.9466C17.517 12.5792 17.3886 12.2196 17.142 11.9466L16.4 12.617ZM16.5001 12.8976L15.5014 12.8485C15.5093 12.6873 15.5808 12.5358 15.7002 12.4271L16.373 13.167L17.0458 13.9069C17.3179 13.6594 17.4809 13.3141 17.4989 12.9466L16.5001 12.8976ZM16.373 13.167L15.6975 12.4296C15.7578 12.3744 15.8285 12.3317 15.9055 12.304L16.2439 13.245L16.5822 14.186C16.7548 14.124 16.9133 14.0282 17.0485 13.9044L16.373 13.167ZM16.2439 13.245L15.9055 12.304C15.9825 12.2763 16.0642 12.2642 16.1459 12.2684L16.0946 13.2671L16.0433 14.2658C16.2265 14.2752 16.4096 14.2481 16.5822 14.186L16.2439 13.245ZM16.0946 13.2671L16.1459 12.2684C16.2276 12.2726 16.3077 12.293 16.3814 12.3284L15.9485 13.2298L15.5155 14.1312C15.6808 14.2106 15.8602 14.2564 16.0433 14.2658L16.0946 13.2671ZM15.9485 13.2298L16.3814 12.3284C16.4552 12.3638 16.5211 12.4136 16.5755 12.4747L15.828 13.139L15.0805 13.8033C15.2023 13.9403 15.3502 14.0518 15.5155 14.1312L15.9485 13.2298ZM15.828 13.139L16.5723 12.4712L16.1273 11.9752L15.383 12.643L14.6387 13.3108L15.0837 13.8068L15.828 13.139ZM15.383 12.643H14.383V12.645H15.383H16.383V12.643H15.383ZM15.383 12.645H14.383C14.383 13.3428 14.3823 13.8345 14.3529 14.2175L15.35 14.294L16.3471 14.3705C16.3837 13.8935 16.383 13.3132 16.383 12.645H15.383ZM15.35 14.294L14.353 14.2164C14.3234 14.5965 14.2683 14.8195 14.1871 14.988L15.088 15.422L15.9889 15.856C16.2237 15.3685 16.3086 14.8655 16.347 14.3716L15.35 14.294ZM15.088 15.422L14.187 14.9882C14.0151 15.3453 13.745 15.6275 13.4217 15.8016L13.896 16.682L14.3703 17.5624C15.079 17.1805 15.6409 16.5787 15.989 15.8558L15.088 15.422ZM13.896 16.682L13.4206 15.8022C13.2808 15.8778 13.0621 15.9371 12.6725 15.9682L12.752 16.965L12.8315 17.9618C13.3199 17.9229 13.8672 17.8342 14.3714 17.5618L13.896 16.682ZM12.752 16.965L12.6722 15.9682C12.2839 15.9993 11.7934 16 11.134 16V17V18C11.7646 18 12.3461 18.0007 12.8318 17.9618L12.752 16.965ZM11.134 17V16H11.118V17V18H11.134V17ZM11.118 17L11.1232 16C11.2036 16.0004 11.2833 16.0167 11.3575 16.0479L10.97 16.9698L10.5826 17.8917C10.7505 17.9622 10.9307 17.999 11.1128 18L11.118 17ZM10.97 16.9698L11.3575 16.0479C11.4317 16.0791 11.4991 16.1246 11.5557 16.1818L10.8449 16.8852L10.1342 17.5887C10.2623 17.7181 10.4147 17.8211 10.5826 17.8917L10.97 16.9698ZM10.8449 16.8852L11.5557 16.1818C11.6123 16.239 11.6571 16.3068 11.6875 16.3814L10.7617 16.7593L9.83584 17.1371C9.90467 17.3058 10.006 17.4592 10.1342 17.5887L10.8449 16.8852ZM10.7617 16.7593L11.6875 16.3814C11.718 16.4559 11.7334 16.5357 11.733 16.6162L10.733 16.611L9.73301 16.6058C9.73206 16.788 9.76701 16.9685 9.83584 17.1371L10.7617 16.7593ZM10.733 16.611L11.733 16.611C11.733 16.9382 11.4674 17.222 11.118 17.222V16.222V15.222C10.3426 15.222 9.733 15.8538 9.733 16.611L10.733 16.611ZM11.118 16.222V17.222C11.7667 17.222 12.3194 17.2228 12.7726 17.1857L12.691 16.189L12.6094 15.1923C12.2566 15.2212 11.7993 15.222 11.118 15.222V16.222ZM12.691 16.189L12.7702 17.1859C13.2176 17.1503 13.6431 17.0746 14.0092 16.8753L13.531 15.997L13.0528 15.1187C13.061 15.1143 13.0415 15.1268 12.969 15.1435C12.8951 15.1606 12.7823 15.1786 12.6118 15.1921L12.691 16.189ZM13.531 15.997L14.0047 16.8777C14.5685 16.5745 15.0163 16.0951 15.2951 15.5155L14.394 15.082L13.4929 14.6485C13.3897 14.8629 13.2335 15.0215 13.0573 15.1163L13.531 15.997ZM14.394 15.082L15.2954 15.515C15.4692 15.1532 15.5435 14.7625 15.5781 14.3091L14.581 14.233L13.5839 14.1569C13.5585 14.4895 13.5148 14.6028 13.4926 14.649L14.394 15.082ZM14.581 14.233L15.5781 14.3085C15.6117 13.8658 15.611 13.3159 15.611 12.629H14.611H13.611C13.611 13.3481 13.6103 13.8082 13.5839 14.1575L14.581 14.233ZM14.611 12.629H15.611V12.572H14.611H13.611V12.629H14.611ZM14.611 12.572L13.9008 11.868L13.3258 12.448L14.036 13.152L14.7462 13.856L15.3212 13.276L14.611 12.572ZM14.036 13.152L13.3264 12.4474C13.3836 12.3898 13.4517 12.344 13.5267 12.3128L13.9111 13.236L14.2954 14.1591C14.464 14.089 14.617 13.9861 14.7456 13.8566L14.036 13.152ZM13.9111 13.236L13.5267 12.3128C13.6018 12.2815 13.6822 12.2654 13.7635 12.2654V13.2654V14.2654C13.9461 14.2654 14.1269 14.2293 14.2954 14.1591L13.9111 13.236ZM13.7635 13.2654V12.2654C13.8448 12.2654 13.9252 12.2815 14.0002 12.3128L13.6159 13.236L13.2316 14.1591C13.4001 14.2293 13.5809 14.2654 13.7635 14.2654V13.2654ZM13.6159 13.236L14.0002 12.3128C14.0753 12.344 14.1434 12.3898 14.2006 12.4474L13.491 13.152L12.7814 13.8566C12.91 13.9861 13.063 14.089 13.2316 14.1591L13.6159 13.236ZM13.491 13.152L14.2001 12.4469C14.3137 12.5612 14.3775 12.7158 14.3775 12.877L13.3775 12.877L12.3775 12.877C12.3775 13.2443 12.5229 13.5967 12.7819 13.8571L13.491 13.152ZM13.3775 12.877L14.3775 12.877C14.3775 13.0382 14.3137 13.1928 14.2001 13.3071L13.491 12.602L12.7819 11.8969C12.5229 12.1573 12.3775 12.5097 12.3775 12.877L13.3775 12.877ZM13.491 12.602L14.201 13.3062L15.435 12.0622L14.725 11.358L14.015 10.6538L12.781 11.8978L13.491 12.602ZM14.725 11.358L15.437 12.0602C15.3771 12.1209 15.3053 12.1686 15.2262 12.2003L14.8542 11.2721L14.4823 10.3438C14.306 10.4145 14.1463 10.5207 14.013 10.6558L14.725 11.358ZM14.8542 11.2721L15.2262 12.2003C15.147 12.2321 15.0621 12.2471 14.9769 12.2445L15.007 11.245L15.0371 10.2455C14.8474 10.2397 14.6585 10.2732 14.4823 10.3438L14.8542 11.2721Z" fill="#2C2C2E" mask="url(#path-3-inside-2_482_28)"/>
</svg>
