<svg width="26" height="24" viewBox="0 0 26 24" fill="none" xmlns="http://www.w3.org/2000/svg">
<path d="M7.79376 5.10134L4.90016 3.86002C4.36539 3.63062 3.74467 3.85821 3.48447 4.3791L1.11619 9.12027C0.855378 9.64239 1.04749 10.2775 1.55384 10.5671L4.49725 12.2507M7.79376 5.10134L12.7346 3.5504C12.9401 3.48588 13.16 3.48325 13.3671 3.54283L18.3703 4.98282C18.6352 5.05904 18.9189 5.03288 19.1654 4.90953L21.0958 3.94338C21.6386 3.67172 22.2987 3.89194 22.5701 4.43527L24.8838 9.06713C25.1552 9.61046 24.9351 10.2711 24.3923 10.5428L22.0787 11.7008M7.79376 5.10134L4.49725 12.2507M22.0787 11.7008L17.0265 17.2635C16.7543 17.5632 16.3395 17.6889 15.9469 17.5907L10.1886 16.1497C10.0583 16.1171 9.93501 16.0608 9.82496 15.9837L4.49725 12.2507M22.0787 11.7008L19.3889 6.26315C19.2036 5.88841 18.822 5.6513 18.4042 5.6513H15.4063C15.1061 5.6513 14.8189 5.77427 14.6116 5.99163L11.2515 9.51414C10.6797 10.1136 10.9505 11.1066 11.7473 11.3321L12.7359 11.6119C12.9407 11.6699 13.1579 11.6671 13.3611 11.6039L16.0139 10.7784C16.3697 10.6677 16.7573 10.745 17.0435 10.9838L19.881 13.3506M5.59609 17.2003L8.14888 19.2445C8.2768 19.3469 8.42597 19.4194 8.58549 19.4567L13.0497 20.5" stroke="currentColor" stroke-linecap="round" stroke-linejoin="round"/>
</svg>
