<svg width="24" height="24" viewBox="0 0 24 24" fill="none" xmlns="http://www.w3.org/2000/svg">
<path d="M12 17V21M14.305 7.53L15.228 7.148M15.228 4.852L14.305 4.469M16.852 3.228L16.469 2.304M16.852 8.772L16.469 9.695M19.148 3.228L19.531 2.304M19.53 9.696L19.148 8.772M20.772 4.852L21.696 4.469M20.772 7.148L21.696 7.531M22 13V15C22 15.5304 21.7893 16.0391 21.4142 16.4142C21.0391 16.7893 20.5304 17 20 17H4C3.46957 17 2.96086 16.7893 2.58579 16.4142C2.21071 16.0391 2 15.5304 2 15V5C2 4.46957 2.21071 3.96086 2.58579 3.58579C2.96086 3.21071 3.46957 3 4 3H11M8 21H16" stroke="#2C2C2E" stroke-linecap="round" stroke-linejoin="round"/>
<path d="M18 9C19.6569 9 21 7.65685 21 6C21 4.34315 19.6569 3 18 3C16.3431 3 15 4.34315 15 6C15 7.65685 16.3431 9 18 9Z" stroke="#2C2C2E" stroke-linecap="round" stroke-linejoin="round"/>
</svg>
