<svg width="24" height="24" viewBox="0 0 24 24" fill="none" xmlns="http://www.w3.org/2000/svg">
<path d="M4.5 4.25H19.5C19.7652 4.25 20.0195 4.35543 20.207 4.54297C20.3946 4.73051 20.5 4.98478 20.5 5.25V10.5C20.5 14.9586 18.4845 17.755 16.6523 19.3838L16.2891 19.6934C14.2007 21.399 12.1285 21.9752 12.0693 21.9912H12.0684C12.0255 22.0029 11.9804 22.0028 11.9375 21.9912H11.9365C11.8771 21.9752 9.80211 21.3987 7.7168 19.6934C5.7939 18.1198 3.5 15.2558 3.5 10.5V5.25C3.5 4.98478 3.60543 4.73051 3.79297 4.54297C3.98051 4.35543 4.23478 4.25 4.5 4.25ZM4 10.5C4 14.1366 5.35504 17.1148 8.03418 19.3066H8.03516C9.16778 20.2329 10.4536 20.9541 11.835 21.4365L12 21.4941L12.165 21.4365C13.5644 20.9457 14.867 20.2122 16.0117 19.2695L16.0127 19.2686C18.6609 17.0803 20 14.1139 20 10.5V4.75H4V10.5ZM15.75 9.5C15.7828 9.5 15.8154 9.50601 15.8457 9.51855C15.8761 9.53114 15.9035 9.54999 15.9268 9.57324C15.95 9.59649 15.9689 9.62391 15.9814 9.6543C15.994 9.68464 16 9.71717 16 9.75L15.9961 9.79883C15.9929 9.81487 15.9877 9.83052 15.9814 9.8457C15.9689 9.87609 15.95 9.90351 15.9268 9.92676L10.6768 15.1768V15.1777C10.6536 15.2008 10.6259 15.2189 10.5957 15.2314C10.5654 15.244 10.5329 15.251 10.5 15.251C10.4671 15.251 10.4346 15.244 10.4043 15.2314C10.3741 15.2189 10.3464 15.2008 10.3232 15.1777V15.1768L8.07324 12.9268C8.02628 12.8798 8 12.8164 8 12.75C8 12.6836 8.02628 12.6202 8.07324 12.5732C8.1202 12.5263 8.18358 12.5 8.25 12.5C8.31642 12.5 8.3798 12.5263 8.42676 12.5732L10.5 14.6465L15.5732 9.57324C15.5965 9.54999 15.6239 9.53114 15.6543 9.51855C15.6846 9.50601 15.7172 9.5 15.75 9.5Z" stroke="#2C2C2E"/>
</svg>
