<svg width="24" height="24" viewBox="0 0 24 24" fill="none" xmlns="http://www.w3.org/2000/svg">
<mask id="path-1-inside-1_482_37" fill="white">
<path d="M22.2188 13.8225C22.1332 13.8732 22.031 13.8879 21.9347 13.8633C21.8384 13.8386 21.7557 13.7768 21.705 13.6913C20.9241 12.3788 19.7428 11.6288 18.465 11.6288C18.4268 11.6283 18.3888 11.622 18.3525 11.61C18.2342 11.6224 18.1152 11.6286 17.9963 11.6288C17.8968 11.6288 17.8014 11.5892 17.7311 11.5189C17.6608 11.4486 17.6213 11.3532 17.6213 11.2538C17.6213 11.1543 17.6608 11.0589 17.7311 10.9886C17.8014 10.9183 17.8968 10.8788 17.9963 10.8788C18.4872 10.8786 18.9682 10.7408 19.3848 10.4809C19.8013 10.2211 20.1366 9.84966 20.3526 9.40882C20.5686 8.96797 20.6567 8.47538 20.6068 7.987C20.5569 7.49861 20.3711 7.034 20.0704 6.64594C19.7697 6.25788 19.3662 5.96191 18.9057 5.79166C18.4453 5.62141 17.9463 5.58369 17.4655 5.6828C16.9847 5.7819 16.5413 6.01386 16.1857 6.35231C15.8301 6.69077 15.5765 7.12217 15.4538 7.59751C15.4289 7.69385 15.3668 7.77638 15.2811 7.82692C15.1953 7.87747 15.0931 7.8919 14.9967 7.86704C14.9004 7.84217 14.8178 7.78005 14.7673 7.69434C14.7168 7.60863 14.7023 7.50635 14.7272 7.41001C14.8648 6.87638 15.131 6.38457 15.5025 5.97755C15.874 5.57052 16.3396 5.26066 16.8585 5.07504C17.3773 4.88942 17.9338 4.83368 18.4792 4.91269C19.0246 4.99171 19.5423 5.20307 19.9872 5.52832C20.432 5.85357 20.7905 6.2828 21.0312 6.77853C21.272 7.27426 21.3876 7.82139 21.3682 8.37213C21.3487 8.92287 21.1946 9.46046 20.9195 9.93794C20.6443 10.4154 20.2564 10.8183 19.7897 11.1113C20.8031 11.4722 21.7125 12.2363 22.35 13.3125C22.3995 13.3977 22.4135 13.499 22.389 13.5944C22.3644 13.6899 22.3033 13.7718 22.2188 13.8225ZM17.5744 20.0625C17.624 20.1486 17.6375 20.2508 17.6118 20.3468C17.5862 20.4427 17.5235 20.5246 17.4375 20.5744C17.3807 20.6077 17.3159 20.6252 17.25 20.625C17.1842 20.6249 17.1197 20.6076 17.0627 20.5747C17.0058 20.5418 16.9585 20.4945 16.9256 20.4375C16.4202 19.5807 15.7 18.8705 14.8362 18.3772C13.9724 17.8838 12.9948 17.6243 12 17.6243C11.0052 17.6243 10.0276 17.8838 9.16382 18.3772C8.29999 18.8705 7.5798 19.5807 7.07438 20.4375C7.02249 20.5191 6.94107 20.5775 6.84712 20.6006C6.75318 20.6236 6.65398 20.6094 6.57024 20.561C6.4865 20.5126 6.42471 20.4337 6.39776 20.3408C6.37081 20.2479 6.38079 20.1482 6.42563 20.0625C7.23962 18.6648 8.55209 17.6266 10.0997 17.1563C9.27967 16.7306 8.62628 16.042 8.24423 15.2009C7.86217 14.3597 7.77357 13.4146 7.99263 12.517C8.21168 11.6195 8.72571 10.8214 9.45234 10.2508C10.179 9.68021 11.0761 9.37005 12 9.37005C12.9239 9.37005 13.821 9.68021 14.5477 10.2508C15.2743 10.8214 15.7883 11.6195 16.0074 12.517C16.2264 13.4146 16.1378 14.3597 15.7558 15.2009C15.3737 16.042 14.7203 16.7306 13.9003 17.1563C15.4479 17.6266 16.7604 18.6648 17.5744 20.0625ZM12 16.875C12.6675 16.875 13.32 16.6771 13.8751 16.3062C14.4301 15.9354 14.8626 15.4083 15.1181 14.7916C15.3735 14.1749 15.4404 13.4963 15.3102 12.8416C15.1799 12.1869 14.8585 11.5855 14.3865 11.1135C13.9145 10.6415 13.3131 10.3201 12.6584 10.1899C12.0037 10.0596 11.3251 10.1265 10.7084 10.3819C10.0917 10.6374 9.56464 11.0699 9.19379 11.625C8.82294 12.18 8.625 12.8325 8.625 13.5C8.625 14.3951 8.98058 15.2536 9.61352 15.8865C10.2465 16.5194 11.1049 16.875 12 16.875ZM6 10.875C5.50907 10.8748 5.02803 10.737 4.6115 10.4772C4.19498 10.2173 3.85966 9.84591 3.64364 9.40507C3.42762 8.96422 3.33956 8.47163 3.38945 7.98325C3.43933 7.49486 3.62518 7.03025 3.92587 6.64219C4.22657 6.25413 4.63006 5.95816 5.09052 5.78791C5.55098 5.61766 6.04995 5.57994 6.53077 5.67905C7.01159 5.77815 7.45499 6.01011 7.81059 6.34856C8.1662 6.68702 8.41977 7.11842 8.5425 7.59376C8.56737 7.6901 8.62949 7.77263 8.7152 7.82317C8.80091 7.87372 8.90318 7.88815 8.99953 7.86329C9.09588 7.83842 9.17841 7.7763 9.22895 7.69059C9.2795 7.60488 9.29393 7.5026 9.26906 7.40626C9.13087 6.87074 8.8632 6.37738 8.48958 5.9696C8.11597 5.56181 7.64786 5.25209 7.12645 5.06768C6.60504 4.88327 6.04629 4.82983 5.49938 4.91205C4.95246 4.99427 4.43413 5.20963 3.98998 5.5392C3.54584 5.86876 3.18949 6.30243 2.95229 6.80204C2.71508 7.30165 2.6043 7.8519 2.62967 8.40438C2.65504 8.95686 2.8158 9.49464 3.0978 9.97041C3.3798 10.4462 3.77439 10.8454 4.24688 11.1328C3.02841 11.5029 1.96059 12.2537 1.2 13.275C1.14033 13.3546 1.11471 13.4546 1.12877 13.553C1.14284 13.6515 1.19544 13.7403 1.275 13.8C1.35457 13.8597 1.45458 13.8853 1.55303 13.8712C1.65149 13.8572 1.74033 13.8046 1.8 13.725C2.28673 13.0705 2.92037 12.5395 3.64988 12.1748C4.3794 11.81 5.18439 11.6217 6 11.625C6.09946 11.625 6.19484 11.5855 6.26517 11.5152C6.33549 11.4448 6.375 11.3495 6.375 11.25C6.375 11.1505 6.33549 11.0552 6.26517 10.9848C6.19484 10.9145 6.09946 10.875 6 10.875Z"/>
</mask>
<path d="M22.2188 13.8225L22.7287 14.6827L22.7333 14.68L22.2188 13.8225ZM21.705 13.6913L22.5651 13.181L22.5644 13.1799L21.705 13.6913ZM18.465 11.6288L18.4525 12.6288H18.465V11.6288ZM18.3525 11.61L18.665 10.6601L18.4616 10.5932L18.2487 10.6154L18.3525 11.61ZM17.9963 11.6288L17.9963 12.6288L17.9974 12.6288L17.9963 11.6288ZM17.9963 10.8788L17.9963 11.8788L17.9966 11.8788L17.9963 10.8788ZM15.4538 7.59751L14.4855 7.34751L14.4855 7.34763L15.4538 7.59751ZM14.7272 7.41001L15.6955 7.65988L15.6955 7.65973L14.7272 7.41001ZM19.7897 11.1113L19.258 10.2643L17.5108 11.3612L19.4542 12.0533L19.7897 11.1113ZM22.35 13.3125L23.2146 12.8099L23.2104 12.8029L22.35 13.3125ZM17.5744 20.0625L18.4406 19.5628L18.4385 19.5593L17.5744 20.0625ZM17.4375 20.5744L16.9363 19.709L16.9316 19.7118L17.4375 20.5744ZM17.25 20.625L17.253 19.625L17.251 19.625L17.25 20.625ZM16.9256 20.4375L17.7917 19.9375L17.7869 19.9294L16.9256 20.4375ZM7.07438 20.4375L7.91829 20.974L7.92723 20.9599L7.93569 20.9456L7.07438 20.4375ZM6.42563 20.0625L5.56148 19.5593L5.55006 19.5789L5.53954 19.599L6.42563 20.0625ZM10.0997 17.1563L10.3905 18.113L12.7388 17.3994L10.5604 16.2687L10.0997 17.1563ZM13.9003 17.1563L13.4396 16.2687L11.2612 17.3994L13.6095 18.113L13.9003 17.1563ZM8.625 13.5L7.625 13.5L8.625 13.5ZM6 10.875L5.99968 11.875H6V10.875ZM8.5425 7.59376L9.51078 7.34388L9.51075 7.34376L8.5425 7.59376ZM9.26906 7.40626L8.30078 7.65612L8.30079 7.65613L9.26906 7.40626ZM4.24688 11.1328L4.5375 12.0897L6.67591 11.4401L4.76665 10.2785L4.24688 11.1328ZM1.2 13.275L2.00001 13.875L2.00204 13.8723L1.2 13.275ZM1.8 13.725L2.60001 14.325L2.60243 14.3218L1.8 13.725ZM6 11.625L5.99595 12.625H6V11.625ZM22.2188 13.8225L21.7088 12.9623C21.8514 12.8778 22.0216 12.8534 22.1822 12.8944L21.9347 13.8633L21.6872 14.8321C22.0404 14.9224 22.4151 14.8686 22.7287 14.6827L22.2188 13.8225ZM21.9347 13.8633L22.1822 12.8944C22.3428 12.9354 22.4805 13.0385 22.5651 13.1811L21.705 13.6913L20.8449 14.2015C21.031 14.515 21.3339 14.7419 21.6872 14.8321L21.9347 13.8633ZM21.705 13.6913L22.5644 13.1799C21.6437 11.6325 20.168 10.6288 18.465 10.6288V11.6288V12.6288C19.3176 12.6288 20.2044 13.125 20.8456 14.2026L21.705 13.6913ZM18.465 11.6288L18.4775 10.6288C18.5412 10.6296 18.6044 10.6402 18.665 10.6601L18.3525 11.61L18.04 12.5599C18.1732 12.6037 18.3123 12.6269 18.4525 12.6287L18.465 11.6288ZM18.3525 11.61L18.2487 10.6154C18.1644 10.6242 18.0798 10.6287 17.9951 10.6288L17.9963 11.6288L17.9974 12.6288C18.1507 12.6286 18.3039 12.6205 18.4563 12.6046L18.3525 11.61ZM17.9963 11.6288L17.9963 10.6288C18.162 10.6288 18.321 10.6946 18.4382 10.8118L17.7311 11.5189L17.024 12.226C17.2818 12.4839 17.6316 12.6288 17.9963 12.6288L17.9963 11.6288ZM17.7311 11.5189L18.4382 10.8118C18.5554 10.929 18.6213 11.088 18.6213 11.2538H17.6213H16.6213C16.6213 11.6184 16.7661 11.9682 17.024 12.226L17.7311 11.5189ZM17.6213 11.2538H18.6213C18.6213 11.4195 18.5554 11.5785 18.4382 11.6957L17.7311 10.9886L17.024 10.2815C16.7661 10.5393 16.6213 10.8891 16.6213 11.2538H17.6213ZM17.7311 10.9886L18.4382 11.6957C18.321 11.8129 18.162 11.8788 17.9963 11.8788V10.8788V9.87876C17.6316 9.87876 17.2818 10.0236 17.024 10.2815L17.7311 10.9886ZM17.9963 10.8788L17.9966 11.8788C18.6745 11.8785 19.3388 11.6882 19.914 11.3294L19.3848 10.4809L18.8555 9.63249C18.5976 9.79334 18.2998 9.87866 17.9959 9.87876L17.9963 10.8788ZM19.3848 10.4809L19.914 11.3294C20.4892 10.9706 20.9523 10.4576 21.2506 9.84884L20.3526 9.40882L19.4546 8.96879C19.3209 9.2417 19.1133 9.47163 18.8555 9.63249L19.3848 10.4809ZM20.3526 9.40882L21.2506 9.84884C21.5489 9.24005 21.6705 8.55981 21.6016 7.88538L20.6068 7.987L19.612 8.08862C19.6429 8.39095 19.5884 8.69589 19.4546 8.96879L20.3526 9.40882ZM20.6068 7.987L21.6016 7.88538C21.5327 7.21094 21.2761 6.56933 20.8608 6.03344L20.0704 6.64594L19.2799 7.25844C19.4661 7.49867 19.5811 7.78629 19.612 8.08862L20.6068 7.987ZM20.0704 6.64594L20.8608 6.03344C20.4456 5.49754 19.8884 5.08883 19.2525 4.85372L18.9057 5.79166L18.5589 6.7296C18.844 6.835 19.0938 7.01821 19.2799 7.25844L20.0704 6.64594ZM18.9057 5.79166L19.2525 4.85372C18.6167 4.61861 17.9276 4.56653 17.2636 4.70339L17.4655 5.6828L17.6674 6.66221C17.965 6.60086 18.2739 6.62421 18.5589 6.7296L18.9057 5.79166ZM17.4655 5.6828L17.2636 4.70339C16.5996 4.84025 15.9873 5.16056 15.4962 5.62796L16.1857 6.35231L16.8751 7.07667C17.0952 6.86715 17.3697 6.72356 17.6674 6.66221L17.4655 5.6828ZM16.1857 6.35231L15.4962 5.62796C15.0052 6.09535 14.655 6.69109 14.4855 7.34751L15.4538 7.59751L16.422 7.84751C16.498 7.55325 16.6549 7.28619 16.8751 7.07667L16.1857 6.35231ZM15.4538 7.59751L14.4855 7.34763C14.5269 7.18717 14.6303 7.04974 14.7731 6.96556L15.2811 7.82692L15.789 8.68829C16.1032 8.50302 16.3309 8.20054 16.422 7.84738L15.4538 7.59751ZM15.2811 7.82692L14.7731 6.96556C14.9158 6.88138 15.0861 6.85735 15.2466 6.89876L14.9967 7.86704L14.7468 8.83531C15.1 8.92645 15.4749 8.87356 15.789 8.68829L15.2811 7.82692ZM14.9967 7.86704L15.2466 6.89876C15.4071 6.94017 15.5445 7.04362 15.6287 7.18636L14.7673 7.69434L13.9059 8.20233C14.0912 8.51648 14.3937 8.74418 14.7468 8.83531L14.9967 7.86704ZM14.7673 7.69434L15.6287 7.18636C15.7128 7.32909 15.7369 7.49943 15.6955 7.65988L14.7272 7.41001L13.7589 7.16013C13.6678 7.51328 13.7207 7.88817 13.9059 8.20233L14.7673 7.69434ZM14.7272 7.41001L15.6955 7.65973C15.7923 7.28422 15.9797 6.93813 16.2411 6.6517L15.5025 5.97755L14.7639 5.30339C14.2823 5.83102 13.9373 6.46855 13.7589 7.16028L14.7272 7.41001ZM15.5025 5.97755L16.2411 6.6517C16.5025 6.36528 16.8301 6.14723 17.1953 6.0166L16.8585 5.07504L16.5216 4.13347C15.849 4.3741 15.2455 4.77577 14.7639 5.30339L15.5025 5.97755ZM16.8585 5.07504L17.1953 6.0166C17.5604 5.88598 17.952 5.84676 18.3358 5.90236L18.4792 4.91269L18.6225 3.92302C17.9156 3.8206 17.1942 3.89285 16.5216 4.13347L16.8585 5.07504ZM18.4792 4.91269L18.3358 5.90236C18.7196 5.95796 19.0839 6.1067 19.397 6.33558L19.9872 5.52832L20.5774 4.72106C20.0007 4.29944 19.3295 4.02545 18.6225 3.92302L18.4792 4.91269ZM19.9872 5.52832L19.397 6.33558C19.71 6.56446 19.9623 6.86651 20.1317 7.21536L21.0312 6.77853L21.9308 6.3417C21.6187 5.6991 21.1541 5.14268 20.5774 4.72106L19.9872 5.52832ZM21.0312 6.77853L20.1317 7.21536C20.3011 7.5642 20.3825 7.94922 20.3688 8.33678L21.3682 8.37213L22.3675 8.40748C22.3928 7.69356 22.2428 6.98431 21.9308 6.3417L21.0312 6.77853ZM21.3682 8.37213L20.3688 8.33678C20.3551 8.72434 20.2467 9.10264 20.053 9.43865L20.9195 9.93794L21.7859 10.4372C22.1426 9.81828 22.3423 9.1214 22.3675 8.40748L21.3682 8.37213ZM20.9195 9.93794L20.053 9.43865C19.8594 9.77465 19.5865 10.0581 19.258 10.2643L19.7897 11.1113L20.3214 11.9582C20.9264 11.5784 21.4292 11.0562 21.7859 10.4372L20.9195 9.93794ZM19.7897 11.1113L19.4542 12.0533C20.224 12.3275 20.9578 12.9243 21.4896 13.8221L22.35 13.3125L23.2104 12.8029C22.4672 11.5482 21.3823 10.6169 20.1252 10.1692L19.7897 11.1113ZM22.35 13.3125L21.4854 13.815C21.4029 13.6731 21.3796 13.5043 21.4205 13.3452L22.389 13.5944L23.3574 13.8437C23.4475 13.4937 23.3961 13.1224 23.2146 12.81L22.35 13.3125ZM22.389 13.5944L21.4205 13.3452C21.4615 13.1861 21.5634 13.0496 21.7042 12.965L22.2188 13.8225L22.7333 14.68C23.0431 14.494 23.2673 14.1936 23.3574 13.8437L22.389 13.5944ZM17.5744 20.0625L16.7082 20.5622C16.6254 20.4188 16.603 20.2484 16.6458 20.0884L17.6118 20.3468L18.5779 20.6051C18.672 20.2532 18.6226 19.8783 18.4406 19.5628L17.5744 20.0625ZM17.6118 20.3468L16.6458 20.0884C16.6885 19.9285 16.793 19.792 16.9363 19.7091L17.4375 20.5744L17.9387 21.4397C18.2539 21.2571 18.4838 20.957 18.5779 20.6051L17.6118 20.3468ZM17.4375 20.5744L16.9316 19.7118C17.029 19.6546 17.14 19.6247 17.253 19.625L17.25 20.625L17.247 21.625C17.4918 21.6257 17.7323 21.5608 17.9434 21.437L17.4375 20.5744ZM17.25 20.625L17.251 19.625C17.3606 19.6251 17.4683 19.6541 17.5632 19.7089L17.0627 20.5747L16.5623 21.4404C16.771 21.5611 17.0079 21.6248 17.249 21.625L17.25 20.625ZM17.0627 20.5747L17.5632 19.7089C17.658 19.7637 17.7368 19.8426 17.7917 19.9375L16.9256 20.4375L16.0596 20.9375C16.1802 21.1463 16.3535 21.3198 16.5623 21.4404L17.0627 20.5747ZM16.9256 20.4375L17.7869 19.9294C17.1931 18.9228 16.347 18.0884 15.3321 17.5088L14.8362 18.3772L14.3402 19.2455C15.053 19.6526 15.6473 20.2386 16.0643 20.9456L16.9256 20.4375ZM14.8362 18.3772L15.3321 17.5088C14.3173 16.9292 13.1687 16.6243 12 16.6243V17.6243V18.6243C12.8208 18.6243 13.6275 18.8384 14.3402 19.2455L14.8362 18.3772ZM12 17.6243V16.6243C10.8313 16.6243 9.68275 16.9292 8.66787 17.5088L9.16382 18.3772L9.65976 19.2455C10.3725 18.8384 11.1792 18.6243 12 18.6243V17.6243ZM9.16382 18.3772L8.66787 17.5088C7.653 18.0884 6.80687 18.9228 6.21307 19.9294L7.07438 20.4375L7.93569 20.9456C8.35273 20.2386 8.94699 19.6526 9.65976 19.2455L9.16382 18.3772ZM7.07438 20.4375L6.23046 19.901C6.31694 19.765 6.45265 19.6676 6.60921 19.6293L6.84712 20.6006L7.08504 21.5718C7.42949 21.4875 7.72803 21.2733 7.91829 20.974L7.07438 20.4375ZM6.84712 20.6006L6.60921 19.6293C6.76578 19.5909 6.93112 19.6145 7.07069 19.6952L6.57024 20.561L6.0698 21.4268C6.37684 21.6042 6.74058 21.6562 7.08504 21.5718L6.84712 20.6006ZM6.57024 20.561L7.07069 19.6952C7.21025 19.7759 7.31324 19.9074 7.35816 20.0622L6.39776 20.3408L5.43736 20.6194C5.53617 20.96 5.76276 21.2493 6.0698 21.4268L6.57024 20.561ZM6.39776 20.3408L7.35816 20.0622C7.40307 20.217 7.38643 20.3832 7.31171 20.526L6.42563 20.0625L5.53954 19.599C5.37516 19.9132 5.33854 20.2788 5.43736 20.6194L6.39776 20.3408ZM6.42563 20.0625L7.28977 20.5658C7.97673 19.3861 9.08438 18.51 10.3905 18.113L10.0997 17.1563L9.80892 16.1995C8.0198 16.7432 6.5025 17.9434 5.56148 19.5593L6.42563 20.0625ZM10.0997 17.1563L10.5604 16.2687C9.93915 15.9463 9.44415 15.4246 9.15472 14.7873L8.24423 15.2009L7.33373 15.6144C7.80841 16.6595 8.6202 17.515 9.63901 18.0438L10.0997 17.1563ZM8.24423 15.2009L9.15472 14.7873C8.86528 14.1501 8.79816 13.4341 8.96411 12.7541L7.99263 12.517L7.02114 12.2799C6.74898 13.395 6.85906 14.5693 7.33373 15.6144L8.24423 15.2009ZM7.99263 12.517L8.96411 12.7541C9.13006 12.0741 9.51948 11.4696 10.07 11.0373L9.45234 10.2508L8.83472 9.46434C7.93195 10.1733 7.2933 11.1648 7.02114 12.2799L7.99263 12.517ZM9.45234 10.2508L10.07 11.0373C10.6204 10.605 11.3001 10.37 12 10.37V9.37005V8.37005C10.8521 8.37005 9.7375 8.7554 8.83472 9.46434L9.45234 10.2508ZM12 9.37005V10.37C12.6999 10.37 13.3796 10.605 13.93 11.0373L14.5477 10.2508L15.1653 9.46434C14.2625 8.7554 13.1479 8.37005 12 8.37005V9.37005ZM14.5477 10.2508L13.93 11.0373C14.4805 11.4696 14.8699 12.0741 15.0359 12.7541L16.0074 12.517L16.9789 12.2799C16.7067 11.1648 16.0681 10.1733 15.1653 9.46434L14.5477 10.2508ZM16.0074 12.517L15.0359 12.7541C15.2018 13.4341 15.1347 14.1501 14.8453 14.7873L15.7558 15.2009L16.6663 15.6144C17.1409 14.5693 17.251 13.395 16.9789 12.2799L16.0074 12.517ZM15.7558 15.2009L14.8453 14.7873C14.5559 15.4246 14.0609 15.9463 13.4396 16.2687L13.9003 17.1563L14.361 18.0438C15.3798 17.515 16.1916 16.6595 16.6663 15.6144L15.7558 15.2009ZM13.9003 17.1563L13.6095 18.113C14.9156 18.51 16.0233 19.3861 16.7102 20.5658L17.5744 20.0625L18.4385 19.5593C17.4975 17.9434 15.9802 16.7432 14.1911 16.1995L13.9003 17.1563ZM12 16.875V17.875C12.8653 17.875 13.7112 17.6184 14.4306 17.1377L13.8751 16.3062L13.3195 15.4747C12.9289 15.7357 12.4697 15.875 12 15.875V16.875ZM13.8751 16.3062L14.4306 17.1377C15.1501 16.657 15.7108 15.9737 16.042 15.1742L15.1181 14.7916L14.1942 14.4089C14.0145 14.8429 13.71 15.2138 13.3195 15.4747L13.8751 16.3062ZM15.1181 14.7916L16.042 15.1742C16.3731 14.3748 16.4597 13.4952 16.2909 12.6465L15.3102 12.8416L14.3294 13.0367C14.421 13.4974 14.374 13.9749 14.1942 14.4089L15.1181 14.7916ZM15.3102 12.8416L16.2909 12.6465C16.1221 11.7978 15.7054 11.0183 15.0936 10.4064L14.3865 11.1135L13.6794 11.8206C14.0115 12.1528 14.2377 12.576 14.3294 13.0367L15.3102 12.8416ZM14.3865 11.1135L15.0936 10.4064C14.4817 9.79456 13.7022 9.37788 12.8535 9.20907L12.6584 10.1899L12.4633 11.1706C12.924 11.2623 13.3472 11.4885 13.6794 11.8206L14.3865 11.1135ZM12.6584 10.1899L12.8535 9.20907C12.0049 9.04026 11.1252 9.1269 10.3258 9.45803L10.7084 10.3819L11.0911 11.3058C11.5251 11.126 12.0026 11.079 12.4633 11.1706L12.6584 10.1899ZM10.7084 10.3819L10.3258 9.45803C9.52633 9.78917 8.84305 10.3499 8.36232 11.0694L9.19379 11.625L10.0253 12.1805C10.2862 11.79 10.6572 11.4855 11.0911 11.3058L10.7084 10.3819ZM9.19379 11.625L8.36232 11.0694C7.88159 11.7889 7.625 12.6347 7.625 13.5H8.625H9.625C9.625 13.0303 9.76429 12.5711 10.0253 12.1805L9.19379 11.625ZM8.625 13.5L7.625 13.5C7.625 14.6603 8.08594 15.7731 8.90641 16.5936L9.61352 15.8865L10.3206 15.1794C9.87522 14.734 9.625 14.1299 9.625 13.5L8.625 13.5ZM9.61352 15.8865L8.90641 16.5936C9.72688 17.4141 10.8397 17.875 12 17.875V16.875V15.875C11.3701 15.875 10.766 15.6248 10.3206 15.1794L9.61352 15.8865ZM6 10.875L6.00033 9.87501C5.69642 9.87491 5.39863 9.78959 5.14078 9.62874L4.6115 10.4772L4.08223 11.3256C4.65743 11.6845 5.32173 11.8748 5.99968 11.875L6 10.875ZM4.6115 10.4772L5.14078 9.62874C4.88293 9.46788 4.67535 9.23795 4.54163 8.96504L3.64364 9.40507L2.74566 9.84509C3.04397 10.4539 3.50702 10.9668 4.08223 11.3256L4.6115 10.4772ZM3.64364 9.40507L4.54163 8.96504C4.4079 8.69214 4.35339 8.3872 4.38427 8.08487L3.38945 7.98325L2.39462 7.88162C2.32573 8.55606 2.44734 9.2363 2.74566 9.84509L3.64364 9.40507ZM3.38945 7.98325L4.38427 8.08487C4.41515 7.78254 4.5302 7.49492 4.71634 7.25469L3.92587 6.64219L3.1354 6.02969C2.72016 6.56559 2.46352 7.20719 2.39462 7.88162L3.38945 7.98325ZM3.92587 6.64219L4.71634 7.25469C4.90249 7.01446 5.15227 6.83125 5.43731 6.72585L5.09052 5.78791L4.74372 4.84997C4.10785 5.08508 3.55065 5.49379 3.1354 6.02969L3.92587 6.64219ZM5.09052 5.78791L5.43731 6.72585C5.72236 6.62046 6.03125 6.59711 6.3289 6.65846L6.53077 5.67905L6.73265 4.69964C6.06866 4.56278 5.3796 4.61486 4.74372 4.84997L5.09052 5.78791ZM6.53077 5.67905L6.3289 6.65846C6.62655 6.71981 6.90103 6.8634 7.12117 7.07292L7.81059 6.34856L8.50002 5.62421C8.00894 5.15681 7.39664 4.8365 6.73265 4.69964L6.53077 5.67905ZM7.81059 6.34856L7.12117 7.07292C7.34131 7.28244 7.49828 7.5495 7.57426 7.84376L8.5425 7.59376L9.51075 7.34376C9.34126 6.68734 8.99109 6.0916 8.50002 5.62421L7.81059 6.34856ZM8.5425 7.59376L7.57422 7.84363C7.66536 8.19678 7.89305 8.49927 8.20721 8.68454L8.7152 7.82317L9.22318 6.96181C9.36592 7.04599 9.46937 7.18342 9.51078 7.34388L8.5425 7.59376ZM8.7152 7.82317L8.20721 8.68454C8.52137 8.86981 8.89626 8.9227 9.24941 8.83156L8.99953 7.86329L8.74966 6.89501C8.91011 6.8536 9.08044 6.87763 9.22318 6.96181L8.7152 7.82317ZM8.99953 7.86329L9.24941 8.83156C9.60257 8.74043 9.90505 8.51273 10.0903 8.19858L9.22895 7.69059L8.36759 7.18261C8.45176 7.03987 8.5892 6.93642 8.74966 6.89501L8.99953 7.86329ZM9.22895 7.69059L10.0903 8.19858C10.2756 7.88442 10.3285 7.50953 10.2373 7.15638L9.26906 7.40626L8.30079 7.65613C8.25938 7.49568 8.28341 7.32534 8.36759 7.18261L9.22895 7.69059ZM9.26906 7.40626L10.2373 7.15639C10.0582 6.4622 9.71122 5.82267 9.2269 5.29406L8.48958 5.9696L7.75226 6.64514C8.01517 6.9321 8.20354 7.27927 8.30078 7.65612L9.26906 7.40626ZM8.48958 5.9696L9.2269 5.29406C8.74259 4.76544 8.13579 4.36395 7.45988 4.12491L7.12645 5.06768L6.79302 6.01045C7.15994 6.14022 7.48934 6.35817 7.75226 6.64514L8.48958 5.9696ZM7.12645 5.06768L7.45988 4.12491C6.78398 3.88586 6.05968 3.81658 5.35071 3.92316L5.49938 4.91205L5.64804 5.90093C6.03291 5.84308 6.4261 5.88069 6.79302 6.01045L7.12645 5.06768ZM5.49938 4.91205L5.35071 3.92316C4.64175 4.02974 3.96984 4.30892 3.39409 4.73613L3.98998 5.5392L4.58588 6.34226C4.89842 6.11035 5.26317 5.95879 5.64804 5.90093L5.49938 4.91205ZM3.98998 5.5392L3.39409 4.73613C2.81835 5.16334 2.35642 5.7255 2.04893 6.37315L2.95229 6.80204L3.85564 7.23093C4.02256 6.87935 4.27333 6.57418 4.58588 6.34226L3.98998 5.5392ZM2.95229 6.80204L2.04893 6.37315C1.74144 7.02079 1.59783 7.73408 1.63072 8.45026L2.62967 8.40438L3.62862 8.3585C3.61076 7.96972 3.68872 7.58251 3.85564 7.23093L2.95229 6.80204ZM2.62967 8.40438L1.63072 8.45026C1.66361 9.16644 1.872 9.86356 2.23756 10.4803L3.0978 9.97041L3.95804 9.46052C3.7596 9.12572 3.64647 8.74728 3.62862 8.3585L2.62967 8.40438ZM3.0978 9.97041L2.23756 10.4803C2.60311 11.097 3.11462 11.6145 3.7271 11.9871L4.24688 11.1328L4.76665 10.2785C4.43416 10.0762 4.15648 9.79532 3.95804 9.46052L3.0978 9.97041ZM4.24688 11.1328L3.95625 10.176C2.53327 10.6082 1.28622 11.485 0.397967 12.6777L1.2 13.275L2.00204 13.8723C2.63496 13.0224 3.52356 12.3976 4.5375 12.0897L4.24688 11.1328ZM1.2 13.275L0.400002 12.675C0.181198 12.9667 0.0872485 13.3335 0.138821 13.6945L1.12877 13.553L2.11872 13.4116C2.14216 13.5757 2.09946 13.7424 2 13.875L1.2 13.275ZM1.12877 13.553L0.138821 13.6945C0.190394 14.0555 0.383265 14.3812 0.675002 14.6L1.275 13.8L1.875 13C2.00761 13.0995 2.09528 13.2475 2.11872 13.4116L1.12877 13.553ZM1.275 13.8L0.675002 14.6C0.966741 14.8188 1.33345 14.9128 1.69446 14.8612L1.55303 13.8712L1.41161 12.8813C1.57571 12.8578 1.74239 12.9005 1.875 13L1.275 13.8ZM1.55303 13.8712L1.69446 14.8612C2.05547 14.8096 2.3812 14.6167 2.6 14.325L1.8 13.725L1 13.125C1.09946 12.9924 1.24752 12.9047 1.41161 12.8813L1.55303 13.8712ZM1.8 13.725L2.60243 14.3218C2.99569 13.793 3.50766 13.3639 4.0971 13.0692L3.64988 12.1748L3.20267 11.2803C2.33307 11.7151 1.57776 12.3481 0.997575 13.1283L1.8 13.725ZM3.64988 12.1748L4.0971 13.0692C4.68653 12.7745 5.33695 12.6223 5.99595 12.625L6 11.625L6.00406 10.625C5.03183 10.6211 4.07226 10.8455 3.20267 11.2803L3.64988 12.1748ZM6 11.625V12.625C6.36467 12.625 6.71441 12.4801 6.97227 12.2223L6.26517 11.5152L5.55806 10.8081C5.67527 10.6909 5.83424 10.625 6 10.625V11.625ZM6.26517 11.5152L6.97227 12.2223C7.23014 11.9644 7.375 11.6147 7.375 11.25H6.375H5.375C5.375 11.0842 5.44085 10.9253 5.55806 10.8081L6.26517 11.5152ZM6.375 11.25H7.375C7.375 10.8853 7.23014 10.5356 6.97227 10.2777L6.26517 10.9848L5.55806 11.6919C5.44085 11.5747 5.375 11.4158 5.375 11.25H6.375ZM6.26517 10.9848L6.97227 10.2777C6.71441 10.0199 6.36467 9.87501 6 9.87501V10.875V11.875C5.83424 11.875 5.67527 11.8092 5.55806 11.6919L6.26517 10.9848Z" fill="#2C2C2E" mask="url(#path-1-inside-1_482_37)"/>
</svg>
